<?xml version="1.0" encoding="UTF-8" standalone="no"?>
<svg width="29px" height="23px" viewBox="0 0 29 23" version="1.1" xmlns="http://www.w3.org/2000/svg" xmlns:xlink="http://www.w3.org/1999/xlink" xmlns:sketch="http://www.bohemiancoding.com/sketch/ns">
    <!-- Generator: sketchtool 3.4 (381) - http://www.bohemiancoding.com/sketch -->
    <title>quote-icon</title>
    <desc>Created with sketchtool.</desc>
    <defs></defs>
    <g id="Web" stroke="none" stroke-width="1" fill="none" fill-rule="evenodd" sketch:type="MSPage">
        <g id="About" sketch:type="MSArtboardGroup" transform="translate(-400.000000, -1379.000000)" fill="#DA4960">
            <g id="Quote" sketch:type="MSLayerGroup" transform="translate(400.000000, 1379.000000)">
                <g id="quote-icon" sketch:type="MSShapeGroup">
                    <path d="M13.078125,1.96875 C11.7968686,2.31250172 10.601568,2.8046843 9.4921875,3.4453125 C8.38280695,4.0859407 7.42187906,4.82812078 6.609375,5.671875 C5.79687094,6.51562922 5.14843992,7.42968258 4.6640625,8.4140625 C4.17968508,9.39844242 3.9375,10.4062448 3.9375,11.4375 C3.9375,12.031253 4.06249875,12.5546852 4.3125,13.0078125 C4.56250125,13.4609398 4.85937328,13.6875 5.203125,13.6875 C5.54687672,13.6875 5.83593633,13.6171882 6.0703125,13.4765625 C6.30468867,13.3359368 6.54687375,13.1875008 6.796875,13.03125 C7.04687625,12.8749992 7.33593586,12.7265632 7.6640625,12.5859375 C7.99218914,12.4453118 8.42187234,12.375 8.953125,12.375 C9.51562781,12.375 10.0468725,12.4999988 10.546875,12.75 C11.0468775,13.0000012 11.4843731,13.3359354 11.859375,13.7578125 C12.2343769,14.1796896 12.5312489,14.6796846 12.75,15.2578125 C12.9687511,15.8359404 13.078125,16.4531217 13.078125,17.109375 C13.078125,17.8281286 12.929689,18.4999969 12.6328125,19.125 C12.335936,19.7500031 11.9296901,20.2890602 11.4140625,20.7421875 C10.8984349,21.1953148 10.289066,21.5468738 9.5859375,21.796875 C8.88280898,22.0468762 8.14062891,22.171875 7.359375,22.171875 C6.32811984,22.171875 5.36719195,21.9453148 4.4765625,21.4921875 C3.58593305,21.0390602 2.80469086,20.4140665 2.1328125,19.6171875 C1.46093414,18.8203085 0.937501875,17.8984427 0.5625,16.8515625 C0.187498125,15.8046823 0,14.6718811 0,13.453125 C0,11.5781156 0.351558984,9.84375797 1.0546875,8.25 C1.75781602,6.65624203 2.70311906,5.26563094 3.890625,4.078125 C5.07813094,2.89061906 6.46874203,1.94531602 8.0625,1.2421875 C9.65625797,0.539058984 11.3281162,0.125000625 13.078125,0 L13.078125,1.96875 Z M28.21875,1.96875 C26.9374936,2.31250172 25.742193,2.8046843 24.6328125,3.4453125 C23.523432,4.0859407 22.5625041,4.82812078 21.75,5.671875 C20.9374959,6.51562922 20.2890649,7.42968258 19.8046875,8.4140625 C19.3203101,9.39844242 19.078125,10.4062448 19.078125,11.4375 C19.078125,12.031253 19.2031237,12.5546852 19.453125,13.0078125 C19.7031263,13.4609398 19.9999983,13.6875 20.34375,13.6875 C20.6875017,13.6875 20.9765613,13.6171882 21.2109375,13.4765625 C21.4453137,13.3359368 21.6874987,13.1875008 21.9375,13.03125 C22.1875013,12.8749992 22.4765609,12.7265632 22.8046875,12.5859375 C23.1328141,12.4453118 23.5624973,12.375 24.09375,12.375 C24.6562528,12.375 25.1874975,12.4999988 25.6875,12.75 C26.1875025,13.0000012 26.6249981,13.3359354 27,13.7578125 C27.3750019,14.1796896 27.6718739,14.6796846 27.890625,15.2578125 C28.1093761,15.8359404 28.21875,16.4531217 28.21875,17.109375 C28.21875,17.8281286 28.070314,18.4999969 27.7734375,19.125 C27.476561,19.7500031 27.0703151,20.2890602 26.5546875,20.7421875 C26.0390599,21.1953148 25.429691,21.5468738 24.7265625,21.796875 C24.023434,22.0468762 23.2812539,22.171875 22.5,22.171875 C21.4687448,22.171875 20.507817,21.9453148 19.6171875,21.4921875 C18.726558,21.0390602 17.9453159,20.4140665 17.2734375,19.6171875 C16.6015591,18.8203085 16.0781269,17.8984427 15.703125,16.8515625 C15.3281231,15.8046823 15.140625,14.6718811 15.140625,13.453125 C15.140625,11.5781156 15.492184,9.84375797 16.1953125,8.25 C16.898441,6.65624203 17.8437441,5.26563094 19.03125,4.078125 C20.2187559,2.89061906 21.609367,1.94531602 23.203125,1.2421875 C24.796883,0.539058984 26.4687413,0.125000625 28.21875,0 L28.21875,1.96875 Z" id="“"></path>
                </g>
            </g>
        </g>
    </g>
</svg>