<?xml version="1.0" encoding="UTF-8" standalone="no"?>
<svg width="68px" height="62px" viewBox="0 0 68 62" version="1.1" xmlns="http://www.w3.org/2000/svg" xmlns:xlink="http://www.w3.org/1999/xlink" xmlns:sketch="http://www.bohemiancoding.com/sketch/ns">
    <!-- Generator: sketchtool 3.4 (381) - http://www.bohemiancoding.com/sketch -->
    <title>-g-nav-resources</title>
    <desc>Created with sketchtool.</desc>
    <defs></defs>
    <g id="Web" stroke="none" stroke-width="1" fill="none" fill-rule="evenodd" sketch:type="MSPage">
        <g id="Modules" sketch:type="MSArtboardGroup" transform="translate(-1040.000000, -108.000000)">
            <g id="Navigation" sketch:type="MSLayerGroup" transform="translate(66.000000, 79.000000)">
                <g id="resources" transform="translate(864.000000, 0.000000)" sketch:type="MSShapeGroup">
                    <g id="-g-nav-resources" transform="translate(104.000000, 20.000000)">
                        <rect id="Rectangle-423" fill-opacity="0" fill="#D8D8D8" x="0" y="0" width="80" height="80"></rect>
                        <g id="Page-1" transform="translate(6.000000, 9.000000)" fill="#FFFFFF">
                            <path d="M0,61.7368421 L68,61.7368421 L68,0 L0,0 L0,61.7368421 Z M6.54814815,6.52503209 L61.4518519,6.52503209 L61.4518519,18.5712452 L62.962963,18.5712452 L62.962963,25.0962773 L61.4518519,25.0962773 L61.4518519,36.6405648 L62.962963,36.6405648 L62.962963,43.6675225 L61.4518519,43.6675225 L61.4518519,55.21181 L6.54814815,55.21181 L6.54814815,6.52503209 Z" id="Fill-1"></path>
                            <g id="Group-6" transform="translate(9.570370, 10.038511)">
                                <path d="M19.0490163,34.1309371 C11.7234015,34.1309371 5.78473481,28.2132349 5.78473481,20.9134807 C5.78473481,13.6137266 11.7234015,7.69627535 19.0490163,7.69627535 C26.3746311,7.69627535 32.3132978,13.6137266 32.3132978,20.9134807 C32.3132978,28.2132349 26.3746311,34.1309371 19.0490163,34.1309371 L19.0490163,34.1309371 Z M48.8592089,8.53273427 L48.8592089,0 L-5.03703704e-05,0 L-5.03703704e-05,42.1617458 L48.8592089,42.1617458 L48.8592089,33.6290116 L47.3480978,33.6290116 L47.3480978,26.6020539 L48.8592089,26.6020539 L48.8592089,15.0577664 L47.3480978,15.0577664 L47.3480978,8.53273427 L48.8592089,8.53273427 Z" id="Fill-2"></path>
                                <path d="M19.0490163,26.0164574 C16.22072,26.0164574 13.9281126,23.7316923 13.9281126,20.9136313 C13.9281126,18.0953194 16.22072,15.8105543 19.0490163,15.8105543 C21.8773126,15.8105543 24.16992,18.0953194 24.16992,20.9136313 C24.16992,23.7316923 21.8773126,26.0164574 19.0490163,26.0164574 M19.0490163,10.7077282 C13.4014904,10.7077282 8.80695704,15.2860421 8.80695704,20.9136313 C8.80695704,26.5409696 13.4014904,31.1192834 19.0490163,31.1192834 C24.6965422,31.1192834 29.2910756,26.5409696 29.2910756,20.9136313 C29.2910756,15.2860421 24.6965422,10.7077282 19.0490163,10.7077282" id="Fill-4"></path>
                            </g>
                        </g>
                    </g>
                </g>
            </g>
        </g>
    </g>
</svg>