<?xml version="1.0" encoding="UTF-8" standalone="no"?>
<svg width="44px" height="66px" viewBox="0 0 44 66" version="1.1" xmlns="http://www.w3.org/2000/svg" xmlns:xlink="http://www.w3.org/1999/xlink" xmlns:sketch="http://www.bohemiancoding.com/sketch/ns">
    <!-- Generator: sketchtool 3.4 (381) - http://www.bohemiancoding.com/sketch -->
    <title>-g-nav-help</title>
    <desc>Created with sketchtool.</desc>
    <defs></defs>
    <g id="Web" stroke="none" stroke-width="1" fill="none" fill-rule="evenodd" sketch:type="MSPage">
        <g id="Modules" sketch:type="MSArtboardGroup" transform="translate(-476.000000, -106.000000)">
            <g id="Navigation" sketch:type="MSLayerGroup" transform="translate(66.000000, 79.000000)">
                <g id="help" transform="translate(288.000000, 0.000000)" sketch:type="MSShapeGroup">
                    <g id="-g-nav-help" transform="translate(104.000000, 20.000000)">
                        <rect id="Rectangle-423" fill-opacity="0" fill="#D8D8D8" x="0" y="0" width="80" height="80"></rect>
                        <path d="M45.5005867,67.5005867 C45.5005867,70.5383467 43.0389333,73 40,73 C36.9610667,73 34.4994133,70.5383467 34.4994133,67.5005867 C34.4994133,64.4616533 36.9610667,62 40,62 C43.0389333,62 45.5005867,64.4616533 45.5005867,67.5005867 L45.5005867,67.5005867 Z M62,29 C62,16.8501333 52.1498667,7 40,7 C27.8501333,7 18,16.8501333 18,29 C18,32.03424 20.4616533,34.4994133 23.5005867,34.4994133 C26.5383467,34.4994133 29,32.03424 29,29 C29,22.9268267 33.9268267,18 40,18 C46.0731733,18 51,22.9268267 51,29 C51,35.0731733 46.0731733,40 40,40 C36.9610667,40 34.4994133,42.4663467 34.4994133,45.5005867 L34.4994133,51 C34.4994133,54.03424 36.9610667,56.4994133 40,56.4994133 C43.0389333,56.4994133 45.5005867,54.03424 45.5005867,51 L45.5005867,50.2209067 C54.9693867,47.7639467 62,39.23968 62,29 L62,29 Z" id="Page-1" fill="#FFFFFF"></path>
                    </g>
                </g>
            </g>
        </g>
    </g>
</svg>