<?xml version="1.0" encoding="UTF-8" standalone="no"?>
<svg width="72px" height="68px" viewBox="0 0 72 68" version="1.1" xmlns="http://www.w3.org/2000/svg" xmlns:xlink="http://www.w3.org/1999/xlink" xmlns:sketch="http://www.bohemiancoding.com/sketch/ns">
    <!-- Generator: sketchtool 3.4 (381) - http://www.bohemiancoding.com/sketch -->
    <title>-g-nav-contact</title>
    <desc>Created with sketchtool.</desc>
    <defs></defs>
    <g id="Web" stroke="none" stroke-width="1" fill="none" fill-rule="evenodd" sketch:type="MSPage">
        <g id="Modules" sketch:type="MSArtboardGroup" transform="translate(-750.000000, -105.000000)">
            <g id="Navigation" sketch:type="MSLayerGroup" transform="translate(66.000000, 79.000000)">
                <g id="contact" transform="translate(576.000000, 0.000000)" sketch:type="MSShapeGroup">
                    <g id="-g-nav-contact" transform="translate(104.000000, 20.000000)">
                        <rect id="Rectangle-423" fill-opacity="0" fill="#D8D8D8" x="0" y="0" width="80" height="80"></rect>
                        <g id="feedback_icon" transform="translate(4.000000, 6.000000)" fill="#FFFFFF">
                            <path d="M70.1373913,14.0504348 C69.0813913,7.25530435 63.549913,2.00556522 56.6817391,1.28765217 C42.7909565,-0.166956522 28.704,-0.166956522 14.8121739,1.28765217 C7.944,2.00556522 2.41252174,7.25530435 1.35756522,14.0504348 C-0.0365217391,23.018087 -0.0365217391,32.1151304 1.35756522,41.0827826 C2.41252174,47.882087 7.944,53.1276522 14.8121739,53.8486957 C16.1248696,53.9874783 17.474087,54.1137391 18.8514783,54.2285217 L18.4038261,64.7728696 C18.3589565,65.8570435 18.9537391,66.864 19.9241739,67.3450435 C20.3113043,67.5370435 20.7266087,67.629913 21.1429565,67.629913 C21.770087,67.629913 22.389913,67.413913 22.8949565,66.9986087 L37.4431304,54.933913 C43.8542609,54.8806957 50.3238261,54.5133913 56.6817391,53.8486957 C63.549913,53.1318261 69.0813913,47.882087 70.1373913,41.0827826 C71.5273043,32.1151304 71.5273043,23.018087 70.1373913,14.0504348 L70.1373913,14.0504348 Z M64.7165217,40.2427826 C64.0434783,44.5805217 60.5008696,47.9353043 56.1078261,48.3954783 C49.605913,49.0758261 42.986087,49.4347826 36.432,49.4556522 C35.7965217,49.4587826 35.1808696,49.6789565 34.6914783,50.0869565 L24.1471304,58.8344348 L24.4445217,51.8107826 C24.5092174,50.3269565 23.3801739,49.0643478 21.9005217,48.957913 C19.6633043,48.7993043 17.469913,48.6073043 15.3829565,48.3871304 C10.9888696,47.9269565 7.45147826,44.5763478 6.77843478,40.2354783 C5.47408696,31.826087 5.47408696,23.2946087 6.77843478,14.8862609 C7.45147826,10.5443478 10.9930435,7.19478261 15.3829565,6.73356522 C22.1415652,6.024 28.944,5.67443478 35.7474783,5.67443478 C42.549913,5.67443478 49.3533913,6.02817391 56.1109565,6.73356522 C60.5050435,7.19478261 64.0434783,10.5443478 64.7165217,14.8862609 C66.024,23.3029565 66.024,31.8302609 64.7165217,40.2427826 L64.7165217,40.2427826 Z" id="Fill-1"></path>
                            <path d="M55.2469565,27.2608696 C55.2469565,33.1513043 46.4107826,33.1513043 46.4107826,27.2608696 C46.4107826,21.3704348 55.2469565,21.3704348 55.2469565,27.2608696" id="Fill-2"></path>
                            <path d="M40.1655652,27.2608696 C40.1655652,33.1513043 31.3283478,33.1513043 31.3283478,27.2608696 C31.3283478,21.3704348 40.1655652,21.3704348 40.1655652,27.2608696" id="Fill-3"></path>
                            <path d="M25.0841739,27.2608696 C25.0841739,33.1513043 16.2469565,33.1513043 16.2469565,27.2608696 C16.2469565,21.3704348 25.0841739,21.3704348 25.0841739,27.2608696" id="Fill-4"></path>
                        </g>
                    </g>
                </g>
            </g>
        </g>
    </g>
</svg>