<?xml version="1.0" encoding="UTF-8" standalone="no"?>
<svg width="62px" height="62px" viewBox="0 0 62 62" version="1.1" xmlns="http://www.w3.org/2000/svg" xmlns:xlink="http://www.w3.org/1999/xlink" xmlns:sketch="http://www.bohemiancoding.com/sketch/ns">
    <!-- Generator: sketchtool 3.4 (381) - http://www.bohemiancoding.com/sketch -->
    <title>-g-nav-blog</title>
    <desc>Created with sketchtool.</desc>
    <defs></defs>
    <g id="Web" stroke="none" stroke-width="1" fill="none" fill-rule="evenodd" sketch:type="MSPage">
        <g id="Modules" sketch:type="MSArtboardGroup" transform="translate(-1328.000000, -108.000000)">
            <g id="Navigation" sketch:type="MSLayerGroup" transform="translate(66.000000, 79.000000)">
                <g id="blog" transform="translate(1152.000000, 0.000000)" sketch:type="MSShapeGroup">
                    <g id="-g-nav-blog" transform="translate(101.000000, 20.000000)">
                        <rect id="Rectangle-423" fill-opacity="0" fill="#D8D8D8" x="0" y="0" width="80" height="80"></rect>
                        <g id="Page-1" transform="translate(9.000000, 9.000000)" fill="#FFFFFF">
                            <path d="M61.6122933,25.9622933 C62,25.1877067 62,24.0245867 61.6122933,23.25 L58.9,20.5377067 C58.5122933,20.15 58.1245867,20.15 57.35,20.15 C56.9622933,20.15 56.1877067,20.15 55.8,20.5377067 L34.8754133,41.0754133 L34.8754133,46.5 L41.0754133,46.5 L61.6122933,25.9622933 Z" id="Fill-1"></path>
                            <path d="M11.6245867,11.6245867 L50.3745867,11.6245867 L50.3745867,15.5 L11.6245867,15.5 L11.6245867,11.6245867 Z" id="Fill-2"></path>
                            <path d="M11.6245867,23.25 L47.6622933,23.25 L50.3754133,20.5377067 L50.3754133,19.3754133 L11.6245867,19.3754133 L11.6245867,23.25 Z" id="Fill-3"></path>
                            <path d="M11.6245867,42.6245867 L31,42.6245867 L31,46.5 L11.6245867,46.5 L11.6245867,42.6245867 Z" id="Fill-4"></path>
                            <path d="M11.6245867,31 L39.9122933,31 L43.7877067,27.1245867 L11.6245867,27.1245867 L11.6245867,31 Z" id="Fill-5"></path>
                            <path d="M58.1245867,34.8754133 L58.1245867,50.3754133 C58.1245867,54.6377067 54.6377067,58.1245867 50.3754133,58.1245867 L11.6245867,58.1245867 C7.36229333,58.1245867 3.87541333,54.6377067 3.87541333,50.3754133 L3.87541333,11.6245867 C3.87541333,7.36229333 7.36229333,3.87541333 11.6245867,3.87541333 L50.3754133,3.87541333 C54.6377067,3.87541333 58.1245867,7.36229333 58.1245867,11.6245867 L58.1245867,16.2754133 C59.2877067,16.2754133 60.45,17.05 61.6122933,17.8245867 L62,18.2122933 L62,11.6245867 C62,5.03770667 56.9622933,0 50.3754133,0 L11.6245867,0 C5.03770667,0 0,5.03770667 0,11.6245867 L0,50.3754133 C0,56.9622933 5.03770667,62 11.6245867,62 L50.3754133,62 C56.9622933,62 62,56.9622933 62,50.3754133 L62,31 L58.1245867,34.8754133 Z" id="Fill-6"></path>
                            <path d="M11.6245867,38.75 L32.1622933,38.75 L36.0377067,34.8754133 L11.6245867,34.8754133 L11.6245867,38.75 Z" id="Fill-7"></path>
                        </g>
                    </g>
                </g>
            </g>
        </g>
    </g>
</svg>