<?xml version="1.0" encoding="UTF-8" standalone="no"?>
<svg width="26px" height="28px" viewBox="0 0 26 28" version="1.1" xmlns="http://www.w3.org/2000/svg" xmlns:xlink="http://www.w3.org/1999/xlink" xmlns:sketch="http://www.bohemiancoding.com/sketch/ns">
    <!-- Generator: sketchtool 3.4 (381) - http://www.bohemiancoding.com/sketch -->
    <title>googleplay-icon</title>
    <desc>Created with sketchtool.</desc>
    <defs></defs>
    <g id="Web" stroke="none" stroke-width="1" fill="none" fill-rule="evenodd" sketch:type="MSPage">
        <g id="Terms" sketch:type="MSArtboardGroup" transform="translate(-1256.000000, -39.000000)">
            <g id="Header" sketch:type="MSLayerGroup">
                <g id="App-Store-+-App-Store" transform="translate(1032.000000, 20.000000)" sketch:type="MSShapeGroup">
                    <g id="App-Store" transform="translate(204.000000, 0.000000)">
                        <g id="googleplay-icon" transform="translate(16.000000, 16.000000)">
                            <rect id="Rectangle-102" x="0" y="0" width="34" height="34"></rect>
                            <path d="M4.81999001,30.9352969 C4.32329658,30.8015079 4,30.3083796 4,29.5452859 L4,4.35668543 C4,3.64994438 4.27373995,3.17329904 4.70767067,3 L4.70767067,3 L17.0858674,17.0372492 L4.81999001,30.9352969 L4.81999001,30.9352969 Z M6.52393776,30.4006236 L21.4233802,21.9561198 L17.7944092,17.840757 L6.52393776,30.4006236 L6.52393776,30.4006236 Z M21.5259791,12.0063099 L6.83417643,3.67755398 L17.8158922,16.210083 L21.5259791,12.0063099 L21.5259791,12.0063099 Z M22.522806,12.5714093 L28.2782453,15.8341572 C29.3679688,16.4519195 29.3779344,17.4477455 28.2782453,18.0710123 L22.377199,21.4155273 L18.5282159,17.0229994 L22.522806,12.5714093 L22.522806,12.5714093 Z" id="google-play" fill="#45CB85"></path>
                        </g>
                    </g>
                </g>
            </g>
        </g>
    </g>
</svg>