<?xml version="1.0" encoding="UTF-8" standalone="no"?>
<svg width="90px" height="90px" viewBox="0 0 90 90" version="1.1" xmlns="http://www.w3.org/2000/svg" xmlns:xlink="http://www.w3.org/1999/xlink" xmlns:sketch="http://www.bohemiancoding.com/sketch/ns">
    <!-- Generator: sketchtool 3.4 (381) - http://www.bohemiancoding.com/sketch -->
    <title>logo-mobile</title>
    <desc>Created with sketchtool.</desc>
    <defs></defs>
    <g id="Web" stroke="none" stroke-width="1" fill="none" fill-rule="evenodd" sketch:type="MSPage">
        <g id="About---Mobile" sketch:type="MSArtboardGroup">
            <g id="Top" sketch:type="MSLayerGroup">
                <g id="Header---ON" sketch:type="MSShapeGroup">
                    <g id="logo-mobile">
                        <rect id="Rectangle-209" fill="#F8F8F8" x="0" y="0" width="90" height="90"></rect>
                        <g id="Page-1" transform="translate(19.000000, 12.000000)">
                            <path d="M0.373459091,8.8302 L5.30886818,11.7618923 L6.52915909,6.7962 L0.373459091,8.8302 Z" id="Fill-1" fill="#E2271D"></path>
                            <path d="M20.7079936,0.392907692 L7.27320273,3.78521538 L11.7310664,10.6196769 L20.7079936,0.392907692 Z" id="Fill-2" fill="#E54260"></path>
                            <path d="M0,33.2107846 L19.7740909,22.9484769 L7.27306364,3.7854 L0,33.2107846 Z" id="Fill-3" fill="#FCC42F"></path>
                            <path d="M0,33.2107846 L22.2387818,49.2543231 L19.5835364,22.6558615 L0,33.2107846 Z" id="Fill-4" fill="#59B7B2"></path>
                            <path d="M19.5833045,22.6556769 L32.1191045,11.1047538 L42.79155,27.2304462 L31.5089591,42.7002923 L19.5833045,22.6556769 Z" id="Fill-5" fill="#00A0DD"></path>
                            <path d="M23.9113964,66 L31.5090055,42.7001538 L19.5833509,22.656 L23.9113964,66 Z" id="Fill-6" fill="#FCC42F"></path>
                            <path d="M50.7574718,39.3343846 L48.7652264,22.9802308 L32.11929,11.0863846 L50.7574718,39.3343846 Z" id="Fill-7" fill="#266093"></path>
                        </g>
                    </g>
                </g>
            </g>
        </g>
    </g>
</svg>