<?xml version="1.0" encoding="UTF-8" standalone="no"?>
<svg width="40px" height="36px" viewBox="0 0 40 36" version="1.1" xmlns="http://www.w3.org/2000/svg" xmlns:xlink="http://www.w3.org/1999/xlink" xmlns:sketch="http://www.bohemiancoding.com/sketch/ns">
    <!-- Generator: sketchtool 3.4.4 (395) - http://www.bohemiancoding.com/sketch -->
    <title>-g-nav-resources</title>
    <desc>Created with sketchtool.</desc>
    <defs></defs>
    <g id="Web" stroke="none" stroke-width="1" fill="none" fill-rule="evenodd" sketch:type="MSPage">
        <g id="Resources---Subpage" sketch:type="MSArtboardGroup" transform="translate(-245.000000, -667.000000)">
            <g id="Resources-+-Resources" sketch:type="MSLayerGroup" transform="translate(230.000000, 648.000000)">
                <g id="Rectangle-519-+-Resources" sketch:type="MSShapeGroup">
                    <g id="-g-nav-resources" transform="translate(15.000000, 15.000000)">
                        <rect id="Rectangle-423" fill-opacity="0" fill="#D8D8D8" x="0" y="0" width="40" height="40"></rect>
                        <g id="Page-1" transform="translate(3.000000, 4.500000)" fill="#59B8B2">
                            <path d="M0,30.8684211 L34,30.8684211 L34,0 L0,0 L0,30.8684211 Z M3.27407407,3.26251605 L30.7259259,3.26251605 L30.7259259,9.28562259 L31.4814815,9.28562259 L31.4814815,12.5481386 L30.7259259,12.5481386 L30.7259259,18.3202824 L31.4814815,18.3202824 L31.4814815,21.8337612 L30.7259259,21.8337612 L30.7259259,27.605905 L3.27407407,27.605905 L3.27407407,3.26251605 Z" id="Fill-1"></path>
                            <path d="M14.3096933,22.084724 C10.6468859,22.084724 7.67755259,19.1258729 7.67755259,15.4759958 C7.67755259,11.8261187 10.6468859,8.86739313 14.3096933,8.86739313 C17.9725007,8.86739313 20.9418341,11.8261187 20.9418341,15.4759958 C20.9418341,19.1258729 17.9725007,22.084724 14.3096933,22.084724 L14.3096933,22.084724 Z M29.2147896,9.28562259 L29.2147896,5.01925546 L4.78516,5.01925546 L4.78516,26.1001284 L29.2147896,26.1001284 L29.2147896,21.8337612 L28.4592341,21.8337612 L28.4592341,18.3202824 L29.2147896,18.3202824 L29.2147896,12.5481386 L28.4592341,12.5481386 L28.4592341,9.28562259 L29.2147896,9.28562259 Z" id="Fill-2"></path>
                            <path d="M14.3096933,18.0274841 C12.8955452,18.0274841 11.7492415,16.8851016 11.7492415,15.4760711 C11.7492415,14.0669151 12.8955452,12.9245326 14.3096933,12.9245326 C15.7238415,12.9245326 16.8701452,14.0669151 16.8701452,15.4760711 C16.8701452,16.8851016 15.7238415,18.0274841 14.3096933,18.0274841 M14.3096933,10.3731196 C11.4859304,10.3731196 9.1886637,12.6622765 9.1886637,15.4760711 C9.1886637,18.2897402 11.4859304,20.5788972 14.3096933,20.5788972 C17.1334563,20.5788972 19.430723,18.2897402 19.430723,15.4760711 C19.430723,12.6622765 17.1334563,10.3731196 14.3096933,10.3731196" id="Fill-4"></path>
                        </g>
                    </g>
                </g>
            </g>
        </g>
    </g>
</svg>