<?xml version="1.0" encoding="UTF-8" standalone="no"?>
<svg width="197px" height="50px" viewBox="0 0 197 50" version="1.1" xmlns="http://www.w3.org/2000/svg" xmlns:xlink="http://www.w3.org/1999/xlink" xmlns:sketch="http://www.bohemiancoding.com/sketch/ns">
    <!-- Generator: sketchtool 3.4 (381) - http://www.bohemiancoding.com/sketch -->
    <title>roostermoney-logo</title>
    <desc>Created with sketchtool.</desc>
    <defs>
        <path id="path-1" d="M0,0.0945454545 L196.200909,0.0945454545 L196.200909,50 L0,50 L0,0.0945454545 Z"></path>
        <path id="path-3" d="M0,0.0945454545 L196.200909,0.0945454545 L196.200909,50 L0,50 L0,0.0945454545 Z"></path>
    </defs>
    <g id="Web" stroke="none" stroke-width="1" fill="none" fill-rule="evenodd" sketch:type="MSPage">
        <g id="Terms" sketch:type="MSArtboardGroup" transform="translate(-40.000000, -24.000000)">
            <g id="Header" sketch:type="MSLayerGroup">
                <g id="roostermoney-logo" transform="translate(40.000000, 24.000000)">
                    <path d="M133.975636,32.7617273 L125.944727,42.1399091 L117.814727,32.7617273 L117.692,32.7617273 L117.692,49.7544545 L120.165636,49.7544545 L120.165636,38.9571818 L125.822,45.739 L125.944727,45.739 L131.624727,38.9571818 L131.624727,49.7544545 L134.098364,49.7544545 L134.098364,32.7617273 L133.975636,32.7617273 Z" id="Fill-1" fill="#00A0DD" sketch:type="MSShapeGroup"></path>
                    <g id="Group-40">
                        <path d="M150.419364,41.4294545 C150.419364,37.904 147.995727,35.2594545 144.543,35.2594545 C141.090273,35.2594545 138.666636,37.904 138.666636,41.4294545 C138.666636,44.9558182 141.090273,47.6003636 144.543,47.6003636 C147.995727,47.6003636 150.419364,44.9558182 150.419364,41.4294545 M135.948455,41.4294545 C135.948455,36.5076364 139.768455,32.884 144.543,32.884 C149.317545,32.884 153.137545,36.5076364 153.137545,41.4294545 C153.137545,46.3512727 149.317545,49.9749091 144.543,49.9749091 C139.768455,49.9749091 135.948455,46.3512727 135.948455,41.4294545" id="Fill-2" fill="#00A0DD" sketch:type="MSShapeGroup"></path>
                        <path d="M157.436636,38.8094545 L157.436636,49.7549091 L154.987545,49.7549091 L154.987545,32.8594545 L155.183909,32.8594545 L165.859364,44.0494545 L165.859364,33.104 L168.308455,33.104 L168.308455,49.9994545 L168.112091,49.9994545 L157.436636,38.8094545 Z" id="Fill-4" fill="#00A0DD" sketch:type="MSShapeGroup"></path>
                        <path d="M170.343727,33.1041818 L180.946455,33.1041818 L180.946455,35.4305455 L172.963727,35.4305455 L172.963727,40.2050909 L180.040091,40.2050909 L180.040091,42.4823636 L172.963727,42.4823636 L172.963727,47.4287273 L181.289182,47.4287273 L181.289182,49.7550909 L170.343727,49.7550909 L170.343727,33.1041818 Z" id="Fill-6" fill="#00A0DD" sketch:type="MSShapeGroup"></path>
                        <path d="M182.121636,33.1041818 L185.010727,33.1041818 L189.271636,40.5723636 L193.458909,33.1041818 L196.200727,33.1041818 L190.544364,43.0950909 L190.544364,49.7550909 L187.924364,49.7550909 L187.924364,43.1196364 L182.121636,33.1041818 Z" id="Fill-8" fill="#00A0DD" sketch:type="MSShapeGroup"></path>
                        <path d="M67.7293636,35.3302727 L62.7402727,35.3302727 L62.7402727,32.9839091 L75.3602727,32.9839091 L75.3602727,35.3302727 L70.3720909,35.3302727 L70.3720909,49.7775455 L67.7293636,49.7775455 L67.7293636,35.3302727 Z" id="Fill-10" fill="#E54260" sketch:type="MSShapeGroup"></path>
                        <path d="M77.4130909,32.9839091 L88.1067273,32.9839091 L88.1067273,35.3302727 L80.0558182,35.3302727 L80.0558182,40.1457273 L87.1930909,40.1457273 L87.1930909,42.443 L80.0558182,42.443 L80.0558182,47.4311818 L88.4521818,47.4311818 L88.4521818,49.7775455 L77.4130909,49.7775455 L77.4130909,32.9839091 Z" id="Fill-12" fill="#E54260" sketch:type="MSShapeGroup"></path>
                        <path d="M93.1474545,35.3302727 L95.7901818,35.3302727 C98.2592727,35.3302727 99.322,36.2939091 99.322,38.3184545 C99.322,40.3184545 98.2847273,41.3066364 95.7901818,41.3066364 L94.8229091,41.3066364 L99.9638182,49.7775455 L102.852909,49.7775455 L98.8029091,43.1093636 C100.902,42.3439091 102.062909,40.6648182 102.062909,38.3184545 C102.062909,35.1320909 99.8156364,32.9839091 95.8883636,32.9839091 L90.5047273,32.9839091 L90.5047273,49.7775455 L93.1474545,49.7775455 L93.1474545,35.3302727 Z" id="Fill-14" fill="#E54260" sketch:type="MSShapeGroup"></path>
                        <g id="Group-18">
                            <mask id="mask-2" sketch:name="Clip 17" fill="white">
                                <use xlink:href="#path-1"></use>
                            </mask>
                            <g id="Clip-17"></g>
                            <path d="M2.64245455,35.3302727 L5.28518182,35.3302727 C7.75427273,35.3302727 8.817,36.2939091 8.817,38.3184545 C8.817,40.3184545 7.77972727,41.3066364 5.28518182,41.3066364 L4.31790909,41.3066364 L9.45881818,49.7775455 L12.3479091,49.7775455 L8.29790909,43.1093636 C10.397,42.3439091 11.5579091,40.6648182 11.5579091,38.3184545 C11.5579091,35.1320909 9.31063636,32.9839091 5.38336364,32.9839091 L-0.000272727273,32.9839091 L-0.000272727273,49.7775455 L2.64245455,49.7775455 L2.64245455,35.3302727 Z" id="Fill-16" fill="#E54260" sketch:type="MSShapeGroup" mask="url(#mask-2)"></path>
                        </g>
                        <path d="M27.7471818,41.3807273 C27.7471818,37.8243636 25.3026364,35.1570909 21.8199091,35.1570909 C18.3380909,35.1570909 15.8935455,37.8243636 15.8935455,41.3807273 C15.8935455,44.9370909 18.3380909,47.6043636 21.8199091,47.6043636 C25.3026364,47.6043636 27.7471818,44.9370909 27.7471818,41.3807273 M13.1517273,41.3807273 C13.1517273,36.4170909 17.0044545,32.7616364 21.8199091,32.7616364 C26.6362727,32.7616364 30.489,36.4170909 30.489,41.3807273 C30.489,46.3452727 26.6362727,49.9998182 21.8199091,49.9998182 C17.0044545,49.9998182 13.1517273,46.3452727 13.1517273,41.3807273" id="Fill-19" fill="#E54260" sketch:type="MSShapeGroup"></path>
                        <path d="M46.7041818,41.3807273 C46.7041818,37.8243636 44.2587273,35.1570909 40.7769091,35.1570909 C37.2950909,35.1570909 34.8496364,37.8243636 34.8496364,41.3807273 C34.8496364,44.9370909 37.2950909,47.6043636 40.7769091,47.6043636 C44.2587273,47.6043636 46.7041818,44.9370909 46.7041818,41.3807273 M32.1087273,41.3807273 C32.1087273,36.4170909 35.9614545,32.7616364 40.7769091,32.7616364 C45.5932727,32.7616364 49.4450909,36.4170909 49.4450909,41.3807273 C49.4450909,46.3452727 45.5932727,49.9998182 40.7769091,49.9998182 C35.9614545,49.9998182 32.1087273,46.3452727 32.1087273,41.3807273" id="Fill-21" fill="#E54260" sketch:type="MSShapeGroup"></path>
                        <path d="M52.6488182,45.357 C53.4142727,46.8142727 54.7233636,47.6288182 56.4515455,47.6288182 C58.2297273,47.6288182 59.4151818,46.7897273 59.4151818,45.4306364 C59.4151818,43.8506364 58.2051818,43.2579091 56.7233636,42.5906364 L55.5624545,42.0724545 C53.0933636,40.9860909 51.3888182,39.7506364 51.3888182,37.1333636 C51.3888182,34.5642727 53.3406364,32.7615455 56.2051818,32.7615455 C58.5260909,32.7615455 60.0824545,33.6260909 61.1442727,35.4042727 L59.1433636,36.7133636 C58.5015455,35.6260909 57.5879091,35.0833636 56.2542727,35.0833636 C54.8224545,35.0833636 53.9579091,35.8733636 53.9579091,37.0342727 C53.9579091,38.3679091 54.797,38.837 56.6242727,39.6524545 L57.7851818,40.1706364 C60.3288182,41.307 62.0333636,42.517 62.0333636,45.357 C62.0333636,48.4442727 59.6624545,49.9997273 56.477,49.9997273 C53.6115455,49.9997273 51.5615455,48.617 50.4260909,46.4679091 L52.6488182,45.357 Z" id="Fill-23" fill="#E54260" sketch:type="MSShapeGroup"></path>
                        <path d="M97.0450909,4.94236364 L92.4050909,6.48236364 L96.126,8.70236364 L97.0450909,4.94236364 Z" id="Fill-25" fill="#E2271D" sketch:type="MSShapeGroup"></path>
                        <g id="Group-29">
                            <mask id="mask-4" sketch:name="Clip 28" fill="white">
                                <use xlink:href="#path-3"></use>
                            </mask>
                            <g id="Clip-28"></g>
                            <path d="M100.966364,7.83754545 L97.6054545,2.663 L107.732727,0.0939090909 L100.966364,7.83754545 Z" id="Fill-27" fill="#E54260" sketch:type="MSShapeGroup" mask="url(#mask-4)"></path>
                        </g>
                        <path d="M107.028727,17.1725455 L97.606,2.66254545 L92.1241818,24.9434545 L107.028727,17.1725455 Z" id="Fill-30" fill="#FCC42F" sketch:type="MSShapeGroup"></path>
                        <path d="M92.1239091,24.9431818 L106.884818,16.9513636 L108.886636,37.0904545 L92.1239091,24.9431818 Z" id="Fill-32" fill="#59B7B2" sketch:type="MSShapeGroup"></path>
                        <path d="M106.884818,16.951 L116.333909,8.20463636 L124.377545,20.4146364 L115.873909,32.1282727 L106.884818,16.951 Z" id="Fill-34" fill="#00A0DD" sketch:type="MSShapeGroup"></path>
                        <path d="M106.884818,16.951 L110.146636,49.7700909 L115.873909,32.1282727 L106.884818,16.951 Z" id="Fill-36" fill="#FCC42F" sketch:type="MSShapeGroup"></path>
                        <path d="M116.333545,8.19090909 L130.382636,29.58 L128.880818,17.1963636 L116.333545,8.19090909 Z" id="Fill-38" fill="#266093" sketch:type="MSShapeGroup"></path>
                    </g>
                </g>
            </g>
        </g>
    </g>
</svg>