<?xml version="1.0" encoding="UTF-8" standalone="no"?>
<svg width="121px" height="100px" viewBox="0 0 121 100" version="1.1" xmlns="http://www.w3.org/2000/svg" xmlns:xlink="http://www.w3.org/1999/xlink" xmlns:sketch="http://www.bohemiancoding.com/sketch/ns">
    <!-- Generator: sketchtool 3.4 (381) - http://www.bohemiancoding.com/sketch -->
    <title>allowance</title>
    <desc>Created with sketchtool.</desc>
    <defs></defs>
    <g id="Web" stroke="none" stroke-width="1" fill="none" fill-rule="evenodd" sketch:type="MSPage">
        <g id="FAQ" sketch:type="MSArtboardGroup" transform="translate(-240.000000, -1046.000000)">
            <g id="Top-Questions" sketch:type="MSLayerGroup" transform="translate(230.000000, 1026.000000)">
                <g id="q" sketch:type="MSShapeGroup">
                    <g id="allowance" transform="translate(10.000000, 20.000000)">
                        <rect id="Rectangle-324" fill-opacity="0" fill="#D8D8D8" x="10" y="0" width="100" height="100"></rect>
                        <g id="Allowance">
                            <path d="M77.5621287,73.8910891 C70.6571782,73.8910891 65.0594059,69.7128713 65.0594059,64.5594059 C65.0594059,63.2762376 65.4064356,62.0534653 66.0341584,60.9408416 C67.9277228,64.2975248 72.3762376,66.6542079 77.5621287,66.6542079 C77.7183168,66.6542079 77.8735149,66.6519802 78.0287129,66.6477723 C77.4601485,67.7141089 77.1475248,68.8777228 77.1475248,70.0955446 C77.1475248,71.3787129 77.4945545,72.6012376 78.1222772,73.7141089 C78.090099,73.7707921 78.0591584,73.8274752 78.0287129,73.8846535 C77.8735149,73.8891089 77.7183168,73.8910891 77.5621287,73.8910891" id="Fill-1" fill="#FBC03E"></path>
                            <path d="M66.0341584,60.9408416 C65.4064356,59.8279703 65.0594059,58.6054455 65.0594059,57.3222772 C65.0594059,56.0391089 65.4064356,54.8165842 66.0339109,53.7037129 C66.8346535,55.1230198 68.0913366,56.3631188 69.6678218,57.3222772 C68.0913366,58.2814356 66.8346535,59.5215347 66.0341584,60.9408416" id="Fill-2" fill="#FBC03E"></path>
                            <path d="M77.5621287,66.6542079 C72.3762376,66.6542079 67.9277228,64.2975248 66.0341584,60.9408416 C66.8346535,59.5215347 68.0913366,58.2814356 69.6678218,57.3222772 C71.820297,58.6319307 74.5685644,59.4173267 77.5621287,59.4173267 C77.7183168,59.4173267 77.8735149,59.4153465 78.0287129,59.4108911 C77.4601485,60.4774752 77.1475248,61.6410891 77.1475248,62.8586634 C77.1475248,64.1418317 77.4943069,65.3643564 78.1222772,66.4772277 C78.090099,66.5339109 78.0591584,66.5903465 78.0287129,66.6477723 C77.8735149,66.6519802 77.7183168,66.6542079 77.5621287,66.6542079" id="Fill-3" fill="#F8910F"></path>
                            <path d="M66.0339109,53.7037129 C65.4064356,52.5910891 65.0594059,51.3683168 65.0594059,50.0851485 C65.0594059,48.8022277 65.4061881,47.579703 66.0339109,46.4668317 C66.8346535,47.8861386 68.0913366,49.1262376 69.6678218,50.085396 C68.0913366,51.0445545 66.8346535,52.2846535 66.0339109,53.7037129 M88.9957921,53.5393564 C88.1925743,52.1888614 86.9722772,51.0074257 85.4569307,50.085396 C87.0334158,49.1262376 88.2905941,47.8861386 89.0910891,46.4668317 C89.7188119,47.579703 90.0658416,48.8022277 90.0658416,50.0851485 C90.0658416,51.3032178 89.7534653,52.4663366 89.1846535,53.5331683 C89.1215347,53.534901 89.0586634,53.5371287 88.9957921,53.5393564" id="Fill-4" fill="#FBC03E"></path>
                            <path d="M69.6678218,57.3222772 C68.0913366,56.3631188 66.8346535,55.1230198 66.0339109,53.7037129 C66.8346535,52.2846535 68.0913366,51.0445545 69.6678218,50.085396 C71.820297,51.3950495 74.5685644,52.1806931 77.5621287,52.1806931 C80.5559406,52.1806931 83.3042079,51.3950495 85.4569307,50.085396 C86.9722772,51.0074257 88.1925743,52.1888614 88.9957921,53.5393564 C86.1816832,53.6477723 83.6138614,54.4507426 81.5933168,55.7227723 C80.3287129,55.4014851 78.9722772,55.2272277 77.5621287,55.2272277 C74.5685644,55.2272277 71.820297,56.0126238 69.6678218,57.3222772" id="Fill-5" fill="#F8910F"></path>
                            <path d="M77.5621287,59.4173267 C74.5685644,59.4173267 71.820297,58.6319307 69.6678218,57.3222772 C71.820297,56.0126238 74.5685644,55.2272277 77.5621287,55.2272277 C78.9722772,55.2272277 80.3287129,55.4014851 81.5933168,55.7227723 C80.0309406,56.7064356 78.7965347,57.970297 78.0287129,59.4108911 C77.8735149,59.4153465 77.7183168,59.4173267 77.5621287,59.4173267" id="Fill-6" fill="#F36D04"></path>
                            <path d="M89.0910891,46.4668317 C88.2905941,45.0477723 87.0336634,43.8076733 85.4569307,42.8485149 C87.0336634,41.8893564 88.2905941,40.6492574 89.0910891,39.230198 C89.7190594,40.3428218 90.0658416,41.5653465 90.0658416,42.8485149 C90.0658416,44.1316832 89.7188119,45.3542079 89.0910891,46.4668317 M66.0339109,46.4668317 C65.4061881,45.3542079 65.0594059,44.1316832 65.0594059,42.8485149 C65.0594059,41.5653465 65.4061881,40.3428218 66.0339109,39.230198 C66.8344059,40.6492574 68.0913366,41.8893564 69.6678218,42.8485149 C68.0913366,43.8076733 66.8346535,45.0477723 66.0339109,46.4668317" id="Fill-7" fill="#FBC03E"></path>
                            <path d="M85.4569307,50.085396 C83.3042079,48.7757426 80.5559406,47.9903465 77.5621287,47.9903465 C74.5685644,47.9903465 71.820297,48.7757426 69.6678218,50.085396 C68.0913366,49.1262376 66.8346535,47.8861386 66.0339109,46.4668317 C66.8346535,45.0477723 68.0913366,43.8076733 69.6678218,42.8485149 C71.820297,44.1581683 74.5685644,44.9435644 77.5621287,44.9435644 C80.5559406,44.9435644 83.3042079,44.1581683 85.4569307,42.8485149 C87.0336634,43.8076733 88.2905941,45.0477723 89.0910891,46.4668317 C88.2905941,47.8861386 87.0334158,49.1262376 85.4569307,50.085396" id="Fill-8" fill="#F8910F"></path>
                            <path d="M77.5621287,52.1806931 C74.5685644,52.1806931 71.820297,51.3950495 69.6678218,50.085396 C71.820297,48.7757426 74.5685644,47.9903465 77.5621287,47.9903465 C80.5559406,47.9903465 83.3042079,48.7757426 85.4569307,50.085396 C83.3042079,51.3950495 80.5559406,52.1806931 77.5621287,52.1806931" id="Fill-9" fill="#F36D04"></path>
                            <path d="M89.0910891,39.230198 C87.1972772,35.8732673 82.7482673,33.5163366 77.5621287,33.5163366 C72.3762376,33.5163366 67.9274752,35.8732673 66.0339109,39.230198 C65.4061881,38.1173267 65.0594059,36.894802 65.0594059,35.6116337 C65.0594059,30.4579208 70.6571782,26.279703 77.5621287,26.279703 C84.4675743,26.279703 90.0658416,30.4579208 90.0658416,35.6116337 C90.0658416,36.894802 89.7190594,38.1173267 89.0910891,39.230198" id="Fill-10" fill="#FBC03E"></path>
                            <path d="M85.4569307,42.8485149 C83.3042079,41.5388614 80.5559406,40.7534653 77.5621287,40.7534653 C74.5685644,40.7534653 71.820297,41.5388614 69.6678218,42.8485149 C68.0913366,41.8893564 66.8344059,40.6492574 66.0339109,39.230198 C67.9274752,35.8732673 72.3762376,33.5163366 77.5621287,33.5163366 C82.7482673,33.5163366 87.1972772,35.8732673 89.0910891,39.230198 C88.2905941,40.6492574 87.0336634,41.8893564 85.4569307,42.8485149" id="Fill-11" fill="#F8910F"></path>
                            <path d="M77.5621287,44.9435644 C74.5685644,44.9435644 71.820297,44.1581683 69.6678218,42.8485149 C71.820297,41.5388614 74.5685644,40.7534653 77.5621287,40.7534653 C80.5559406,40.7534653 83.3042079,41.5388614 85.4569307,42.8485149 C83.3042079,44.1581683 80.5559406,44.9435644 77.5621287,44.9435644" id="Fill-12" fill="#F36D04"></path>
                            <path d="M90.0658416,28.375 C90.0658416,33.5287129 84.4675743,37.7066832 77.5621287,37.7066832 C70.6571782,37.7066832 65.0594059,33.5287129 65.0594059,28.375 C65.0594059,23.2207921 70.6571782,19.0428218 77.5621287,19.0428218 C84.4675743,19.0428218 90.0658416,23.2207921 90.0658416,28.375" id="Fill-13" fill="#FFCB52"></path>
                            <path d="M89.6507426,86.6643564 C82.7457921,86.6643564 77.1475248,82.4863861 77.1475248,77.3324257 C77.1475248,76.1148515 77.4601485,74.9512376 78.0287129,73.8846535 C78.0915842,73.8829208 78.154703,73.8809406 78.2175743,73.8784653 C80.1621287,77.1475248 84.55,79.4274752 89.6507426,79.4274752 C94.8371287,79.4274752 99.2856436,77.0707921 101.179208,73.7141089 C101.806931,74.8267327 102.15396,76.049505 102.15396,77.3324257 C102.15396,82.4863861 96.5561881,86.6643564 89.6507426,86.6643564" id="Fill-14" fill="#FBC03E"></path>
                            <path id="Fill-15" fill="#F8910F" d="M78.0287129,73.8846535 C78.0591584,73.8274752 78.090099,73.7707921 78.1222772,73.7141089 C78.1532178,73.7690594 78.1851485,73.8240099 78.2175743,73.8784653 C78.154703,73.8809406 78.0915842,73.8829208 78.0287129,73.8846535"></path>
                            <path d="M101.179208,73.7141089 C100.378713,72.2950495 99.1220297,71.054703 97.5455446,70.0955446 C99.1220297,69.1363861 100.378713,67.8962871 101.179455,66.4772277 C101.807178,67.5898515 102.15396,68.8123762 102.15396,70.0955446 C102.15396,71.3787129 101.806931,72.6012376 101.179208,73.7141089" id="Fill-16" fill="#FBC03E"></path>
                            <path d="M78.1222772,73.7141089 C77.4945545,72.6012376 77.1475248,71.3787129 77.1475248,70.0955446 C77.1475248,68.8777228 77.4601485,67.7141089 78.0287129,66.6477723 C78.0915842,66.6460396 78.154703,66.6438119 78.2173267,66.6415842 C79.0207921,67.9920792 80.2408416,69.1737624 81.7561881,70.0955446 C80.179703,71.054703 78.9227723,72.2950495 78.1222772,73.7141089" id="Fill-17" fill="#F8910F"></path>
                            <path id="Fill-18" fill="#F36D04" d="M78.0287129,66.6477723 C78.0591584,66.5903465 78.090099,66.5339109 78.1222772,66.4772277 C78.1532178,66.5321782 78.184901,66.5868812 78.2173267,66.6415842 C78.154703,66.6438119 78.0915842,66.6460396 78.0287129,66.6477723"></path>
                            <path d="M89.6507426,79.4274752 C84.55,79.4274752 80.1621287,77.1475248 78.2175743,73.8784653 C81.0314356,73.7700495 83.599505,72.9673267 85.619802,71.695297 C86.8844059,72.0163366 88.2405941,72.1908416 89.6507426,72.1908416 C92.6445545,72.1908416 95.3928218,71.405198 97.5455446,70.0955446 C99.1220297,71.054703 100.378713,72.2950495 101.179208,73.7141089 C99.2856436,77.0707921 94.8371287,79.4274752 89.6507426,79.4274752" id="Fill-19" fill="#F8910F"></path>
                            <path d="M78.2175743,73.8784653 C78.1851485,73.8240099 78.1532178,73.7690594 78.1222772,73.7141089 C78.9227723,72.2950495 80.179703,71.054703 81.7561881,70.0955446 C82.894802,70.7883663 84.2,71.3344059 85.619802,71.695297 C83.599505,72.9673267 81.0314356,73.7700495 78.2175743,73.8784653" id="Fill-20" fill="#F36D04"></path>
                            <path d="M101.179455,66.4772277 C99.2856436,63.120297 94.8371287,60.7636139 89.6507426,60.7636139 C89.494802,60.7636139 89.3393564,60.7658416 89.1846535,60.7700495 C89.7532178,59.7034653 90.0658416,58.5398515 90.0658416,57.3222772 C90.0658416,56.0391089 89.7188119,54.8165842 89.0910891,53.7037129 C89.1230198,53.6472772 89.1542079,53.5903465 89.1846535,53.5331683 C89.3393564,53.5289604 89.494802,53.5269802 89.6507426,53.5269802 C96.5561881,53.5269802 102.15396,57.7049505 102.15396,62.8586634 C102.15396,64.1418317 101.807178,65.3643564 101.179455,66.4772277" id="Fill-21" fill="#FBC03E"></path>
                            <path d="M88.9957921,60.7762376 C88.1923267,59.4257426 86.9722772,58.2443069 85.4569307,57.3222772 C87.0334158,56.3631188 88.2905941,55.1230198 89.0910891,53.7037129 C89.7188119,54.8165842 90.0658416,56.0391089 90.0658416,57.3222772 C90.0658416,58.5398515 89.7532178,59.7034653 89.1846535,60.7700495 C89.1217822,60.7717822 89.0586634,60.7737624 88.9957921,60.7762376" id="Fill-22" fill="#F8910F"></path>
                            <path d="M78.1222772,66.4772277 C77.4943069,65.3643564 77.1475248,64.1418317 77.1475248,62.8586634 C77.1475248,61.6410891 77.4601485,60.4774752 78.0287129,59.4108911 C80.8408416,59.3339109 83.4165842,58.5636139 85.4569307,57.3222772 C86.9722772,58.2443069 88.1923267,59.4257426 88.9957921,60.7762376 C84.0923267,60.965099 79.9356436,63.2623762 78.1222772,66.4772277" id="Fill-23" fill="#F36D04"></path>
                            <path id="Fill-24" fill="#F8910F" d="M89.0910891,53.7037129 C89.0601485,53.6487624 89.0282178,53.5940594 88.9957921,53.5393564 C89.0586634,53.5371287 89.1215347,53.534901 89.1846535,53.5331683 C89.1542079,53.5903465 89.1230198,53.6472772 89.0910891,53.7037129"></path>
                            <path d="M85.4569307,57.3222772 C84.3183168,56.629703 83.0133663,56.0834158 81.5933168,55.7227723 C83.6138614,54.4507426 86.1816832,53.6477723 88.9957921,53.5393564 C89.0282178,53.5940594 89.0601485,53.6487624 89.0910891,53.7037129 C88.2905941,55.1230198 87.0334158,56.3631188 85.4569307,57.3222772" id="Fill-25" fill="#F36D04"></path>
                            <path d="M78.0287129,59.4108911 C78.7965347,57.970297 80.0309406,56.7064356 81.5933168,55.7227723 C83.0133663,56.0834158 84.3183168,56.629703 85.4569307,57.3222772 C83.4165842,58.5636139 80.8408416,59.3339109 78.0287129,59.4108911" id="Fill-26" fill="#EF5201"></path>
                            <path d="M97.5455446,70.0955446 C95.3928218,68.7858911 92.6445545,68.0002475 89.6507426,68.0002475 C89.494802,68.0002475 89.3393564,68.0024752 89.184901,68.0066832 C89.7532178,66.9403465 90.0658416,65.7769802 90.0658416,64.5594059 C90.0658416,63.2762376 89.7188119,62.0534653 89.0910891,60.9408416 C89.1230198,60.8839109 89.1542079,60.8272277 89.1846535,60.7700495 C89.3393564,60.7658416 89.494802,60.7636139 89.6507426,60.7636139 C94.8371287,60.7636139 99.2856436,63.120297 101.179455,66.4772277 C100.378713,67.8962871 99.1220297,69.1363861 97.5455446,70.0955446" id="Fill-27" fill="#F8910F"></path>
                            <path d="M81.7561881,70.0955446 C80.2408416,69.1737624 79.0207921,67.9920792 78.2173267,66.6415842 C83.1207921,66.4524752 87.2777228,64.155198 89.0910891,60.9408416 C89.7188119,62.0534653 90.0658416,63.2762376 90.0658416,64.5594059 C90.0658416,65.7769802 89.7532178,66.9403465 89.184901,68.0066832 C86.3725248,68.0836634 83.7967822,68.8542079 81.7561881,70.0955446" id="Fill-28" fill="#F36D04"></path>
                            <path id="Fill-29" fill="#F36D04" d="M89.0910891,60.9408416 C89.059901,60.8856436 89.0282178,60.8306931 88.9957921,60.7762376 C89.0586634,60.7737624 89.1217822,60.7717822 89.1846535,60.7700495 C89.1542079,60.8272277 89.1230198,60.8839109 89.0910891,60.9408416"></path>
                            <path d="M78.2173267,66.6415842 C78.184901,66.5868812 78.1532178,66.5321782 78.1222772,66.4772277 C79.9356436,63.2623762 84.0923267,60.965099 88.9957921,60.7762376 C89.0282178,60.8306931 89.059901,60.8856436 89.0910891,60.9408416 C87.2777228,64.155198 83.1207921,66.4524752 78.2173267,66.6415842" id="Fill-30" fill="#EF5201"></path>
                            <path d="M89.6507426,72.1908416 C88.2405941,72.1908416 86.8844059,72.0163366 85.619802,71.695297 C87.1821782,70.7116337 88.4170792,69.4472772 89.184901,68.0066832 C89.3393564,68.0024752 89.494802,68.0002475 89.6507426,68.0002475 C92.6445545,68.0002475 95.3928218,68.7858911 97.5455446,70.0955446 C95.3928218,71.405198 92.6445545,72.1908416 89.6507426,72.1908416" id="Fill-31" fill="#F36D04"></path>
                            <path d="M85.619802,71.695297 C84.2,71.3344059 82.894802,70.7883663 81.7561881,70.0955446 C83.7967822,68.8542079 86.3725248,68.0836634 89.184901,68.0066832 C88.4170792,69.4472772 87.1821782,70.7116337 85.619802,71.695297" id="Fill-32" fill="#EF5201"></path>
                            <path d="M102.15396,55.6220297 C102.15396,60.775495 96.5561881,64.9537129 89.6507426,64.9537129 C82.7457921,64.9537129 77.1475248,60.775495 77.1475248,55.6220297 C77.1475248,50.4680693 82.7457921,46.2898515 89.6507426,46.2898515 C96.5561881,46.2898515 102.15396,50.4680693 102.15396,55.6220297" id="Fill-33" fill="#FFCB52"></path>
                            <path d="M47.6155941,68.8834158 C40.7101485,68.8834158 35.1123762,64.7054455 35.1123762,59.5517327 C35.1123762,58.2685644 35.4591584,57.0460396 36.0868812,55.9331683 C37.9804455,59.290099 42.4292079,61.6467822 47.6155941,61.6467822 C52.8014851,61.6467822 57.2502475,59.290099 59.1440594,55.9331683 C59.7717822,57.0460396 60.1188119,58.2685644 60.1188119,59.5517327 C60.1188119,64.7054455 54.5205446,68.8834158 47.6155941,68.8834158" id="Fill-34" fill="#FBC03E"></path>
                            <path d="M59.1440594,55.9331683 C58.3435644,54.5143564 57.0861386,53.2737624 55.5101485,52.3148515 C57.0861386,51.3556931 58.3435644,50.115099 59.1440594,48.6962871 C59.7717822,49.8089109 60.1188119,51.0314356 60.1188119,52.314604 C60.1188119,53.5977723 59.7717822,54.8205446 59.1440594,55.9331683 M36.0868812,55.9331683 C35.4591584,54.8205446 35.1123762,53.5977723 35.1123762,52.314604 C35.1123762,51.0314356 35.4591584,49.8089109 36.0868812,48.6962871 C36.8873762,50.115099 38.1445545,51.3556931 39.7207921,52.3148515 C38.1445545,53.2737624 36.8873762,54.5143564 36.0868812,55.9331683" id="Fill-35" fill="#FBC03E"></path>
                            <path d="M47.6155941,61.6467822 C42.4292079,61.6467822 37.9804455,59.290099 36.0868812,55.9331683 C36.8873762,54.5143564 38.1445545,53.2737624 39.7207921,52.3148515 C41.8735149,53.6247525 44.6212871,54.409901 47.6155941,54.409901 C50.6094059,54.409901 53.3571782,53.6247525 55.5101485,52.3148515 C57.0861386,53.2737624 58.3435644,54.5143564 59.1440594,55.9331683 C57.2502475,59.290099 52.8014851,61.6467822 47.6155941,61.6467822" id="Fill-36" fill="#F8910F"></path>
                            <path d="M59.1440594,48.6962871 C57.2502475,45.339604 52.8014851,42.9826733 47.6155941,42.9826733 C42.4292079,42.9826733 37.9804455,45.339604 36.0868812,48.6962871 C35.4591584,47.5834158 35.1123762,46.3608911 35.1123762,45.0779703 C35.1123762,39.9240099 40.7101485,35.7460396 47.6155941,35.7460396 C54.5205446,35.7460396 60.1188119,39.9240099 60.1188119,45.0779703 C60.1188119,46.3608911 59.7717822,47.5834158 59.1440594,48.6962871" id="Fill-37" fill="#FBC03E"></path>
                            <path d="M55.5101485,52.3148515 C53.3571782,51.004703 50.6094059,50.2195545 47.6155941,50.2195545 C44.6212871,50.2195545 41.8735149,51.004703 39.7207921,52.3148515 C38.1445545,51.3556931 36.8873762,50.115099 36.0868812,48.6962871 C37.9804455,45.339604 42.4292079,42.9826733 47.6155941,42.9826733 C52.8014851,42.9826733 57.2502475,45.339604 59.1440594,48.6962871 C58.3435644,50.115099 57.0861386,51.3556931 55.5101485,52.3148515" id="Fill-38" fill="#F8910F"></path>
                            <path d="M47.6155941,54.409901 C44.6212871,54.409901 41.8735149,53.6247525 39.7207921,52.3148515 C41.8735149,51.004703 44.6212871,50.2195545 47.6155941,50.2195545 C50.6094059,50.2195545 53.3571782,51.004703 55.5101485,52.3148515 C53.3571782,53.6247525 50.6094059,54.409901 47.6155941,54.409901" id="Fill-39" fill="#F36D04"></path>
                            <path d="M60.1188119,37.8410891 C60.1188119,42.994802 54.5205446,47.1730198 47.6155941,47.1730198 C40.709901,47.1730198 35.1123762,42.994802 35.1123762,37.8410891 C35.1123762,32.6871287 40.709901,28.5089109 47.6155941,28.5089109 C54.5205446,28.5089109 60.1188119,32.6871287 60.1188119,37.8410891" id="Fill-40" fill="#FFCB52"></path>
                            <path d="M52.1443069,91.625 C45.2393564,91.625 39.6410891,87.4467822 39.6410891,82.2933168 C39.6410891,77.1393564 45.2393564,72.9611386 52.1443069,72.9611386 C58.6168317,72.9611386 63.9405941,76.6316832 64.5826733,81.3361386 C57.7071782,81.3621287 52.1433168,85.530198 52.1433168,90.6680693 C52.1433168,90.9910891 52.165099,91.310396 52.2081683,91.625 L52.1443069,91.625" id="Fill-41" fill="#FBC03E"></path>
                            <path d="M64.6465347,100 C58.1742574,100 52.8502475,96.3292079 52.2081683,91.625 C59.0839109,91.5990099 64.6475248,87.4306931 64.6475248,82.2933168 C64.6475248,81.9700495 64.625495,81.6507426 64.5826733,81.3361386 C64.6039604,81.3361386 64.625,81.3358911 64.6465347,81.3358911 C71.5519802,81.3358911 77.1497525,85.5143564 77.1497525,90.6680693 C77.1497525,95.8220297 71.5519802,100 64.6465347,100" id="Fill-42" fill="#FBC03E"></path>
                            <path d="M52.2081683,91.625 C52.165099,91.310396 52.1433168,90.9910891 52.1433168,90.6680693 C52.1433168,85.530198 57.7071782,81.3621287 64.5826733,81.3361386 C64.625495,81.6507426 64.6475248,81.9700495 64.6475248,82.2933168 C64.6475248,87.4306931 59.0839109,91.5990099 52.2081683,91.625" id="Fill-43" fill="#F8910F"></path>
                            <path d="M112.666089,19.8264851 C112.666089,23.7992574 109.445297,27.019802 105.472525,27.019802 C109.445297,27.019802 112.666089,30.2405941 112.666089,34.2136139 C112.666089,30.2405941 115.887129,27.019802 119.859901,27.019802 C115.887376,27.019802 112.666089,23.799505 112.666089,19.8264851" id="Fill-44" fill="#FBC03E"></path>
                            <path d="M108.619059,27.019802 C110.422772,27.8118812 111.874257,29.2633663 112.666337,31.0670792 C113.458416,29.2633663 114.909406,27.8118812 116.713119,27.019802 C114.909406,26.2279703 113.458416,24.7767327 112.666337,22.9730198 C111.874257,24.7767327 110.422772,26.2279703 108.619059,27.019802 L108.619059,27.019802 Z M112.666337,34.8717822 C112.302723,34.8717822 112.008168,34.5772277 112.008168,34.2136139 C112.008168,30.609901 109.076238,27.6779703 105.472525,27.6779703 C105.109158,27.6779703 104.814356,27.3834158 104.814356,27.019802 C104.814356,26.6564356 105.109158,26.3616337 105.472525,26.3616337 C109.076238,26.3616337 112.008168,23.4299505 112.008168,19.8264851 C112.008168,19.4628713 112.302723,19.1683168 112.666337,19.1683168 C113.02995,19.1683168 113.324505,19.4628713 113.324505,19.8264851 C113.324505,23.4299505 116.256188,26.3616337 119.859653,26.3616337 C120.223267,26.3616337 120.518069,26.6564356 120.518069,27.019802 C120.518069,27.3834158 120.223267,27.6779703 119.859653,27.6779703 C116.256188,27.6779703 113.324505,30.609901 113.324505,34.2136139 C113.324505,34.5772277 113.02995,34.8717822 112.666337,34.8717822 L112.666337,34.8717822 Z" id="Fill-45" fill="#FBC03E"></path>
                            <path d="M4.21683168,50.3846535 C4.21683168,52.5180693 2.48712871,54.2477723 0.353465347,54.2477723 C2.48712871,54.2477723 4.21683168,55.9774752 4.21683168,58.1111386 C4.21683168,55.9774752 5.94653465,54.2477723 8.08019802,54.2477723 C5.94678218,54.2477723 4.21683168,52.5180693 4.21683168,50.3846535" id="Fill-46" fill="#FBC03E"></path>
                            <path d="M2.04331683,54.2477723 C3.01212871,54.6730198 3.79158416,55.4524752 4.21683168,56.4212871 C4.64207921,55.4524752 5.42153465,54.6730198 6.39034653,54.2477723 C5.42153465,53.8222772 4.64207921,53.0430693 4.21683168,52.0742574 C3.79158416,53.0430693 3.01212871,53.8222772 2.04331683,54.2477723 L2.04331683,54.2477723 Z M4.21683168,58.464604 C4.02178218,58.464604 3.86336634,58.3064356 3.86336634,58.1111386 C3.86336634,56.1757426 2.28886139,54.6009901 0.353465347,54.6009901 C0.158415842,54.6009901 0,54.4430693 0,54.2477723 C0,54.0524752 0.158415842,53.8943069 0.353465347,53.8943069 C2.28886139,53.8943069 3.86336634,52.319802 3.86336634,50.3844059 C3.86336634,50.1893564 4.02178218,50.0309406 4.21683168,50.0309406 C4.41212871,50.0309406 4.57029703,50.1893564 4.57029703,50.3844059 C4.57029703,52.319802 6.14480198,53.8943069 8.08019802,53.8943069 C8.27524752,53.8943069 8.43366337,54.0524752 8.43366337,54.2477723 C8.43366337,54.4430693 8.27524752,54.6009901 8.08019802,54.6009901 C6.14480198,54.6009901 4.57029703,56.1757426 4.57029703,58.1111386 C4.57029703,58.3064356 4.41212871,58.464604 4.21683168,58.464604 L4.21683168,58.464604 Z" id="Fill-47" fill="#FBC03E"></path>
                            <path d="M19.4861386,53.5700495 C19.4861386,57.5428218 16.2653465,60.7633663 12.2925743,60.7633663 C16.2653465,60.7633663 19.4861386,63.9841584 19.4861386,67.9571782 C19.4861386,63.9841584 22.7069307,60.7633663 26.679703,60.7633663 C22.7074257,60.7633663 19.4861386,57.5428218 19.4861386,53.5700495" id="Fill-48" fill="#FBC03E"></path>
                            <path d="M15.4391089,60.7633663 C17.2428218,61.5554455 18.6940594,63.0066832 19.4861386,64.8106436 C20.2779703,63.0066832 21.7294554,61.5554455 23.5331683,60.7633663 C21.7294554,59.9715347 20.2779703,58.5200495 19.4861386,56.7163366 C18.6940594,58.5200495 17.2428218,59.9715347 15.4391089,60.7633663 L15.4391089,60.7633663 Z M19.4861386,68.6155941 C19.1225248,68.6155941 18.8277228,68.3207921 18.8277228,67.9571782 C18.8277228,64.3534653 15.8960396,61.4215347 12.2925743,61.4215347 C11.9289604,61.4215347 11.6341584,61.1269802 11.6341584,60.7633663 C11.6341584,60.3997525 11.9289604,60.105198 12.2925743,60.105198 C15.8960396,60.105198 18.8277228,57.1735149 18.8277228,53.5700495 C18.8277228,53.2066832 19.1225248,52.9118812 19.4861386,52.9118812 C19.849505,52.9118812 20.1443069,53.2066832 20.1443069,53.5700495 C20.1443069,57.1735149 23.0759901,60.105198 26.679703,60.105198 C27.0433168,60.105198 27.3378713,60.3997525 27.3378713,60.7633663 C27.3378713,61.1269802 27.0433168,61.4215347 26.679703,61.4215347 C23.0759901,61.4215347 20.1443069,64.3534653 20.1443069,67.9571782 C20.1443069,68.3207921 19.849505,68.6155941 19.4861386,68.6155941 L19.4861386,68.6155941 Z" id="Fill-49" fill="#FBC03E"></path>
                            <path d="M102.15396,32.5210396 C102.15396,34.2277228 100.770297,35.6113861 99.0633663,35.6113861 C100.770297,35.6113861 102.15396,36.995297 102.15396,38.7022277 C102.15396,36.995297 103.537871,35.6113861 105.244554,35.6113861 C103.537871,35.6113861 102.15396,34.2279703 102.15396,32.5210396" id="Fill-50" fill="#FBC03E"></path>
                            <path d="M100.415347,35.6113861 C101.190347,35.9517327 101.813614,36.5752475 102.15396,37.3502475 C102.494307,36.5752475 103.117822,35.9517327 103.892822,35.6113861 C103.117822,35.2712871 102.494307,34.6477723 102.15396,33.8727723 C101.813614,34.6477723 101.190347,35.2712871 100.415347,35.6113861 L100.415347,35.6113861 Z M102.15396,38.9851485 C101.997772,38.9851485 101.871287,38.8584158 101.871287,38.7022277 C101.871287,37.1539604 100.611634,35.8943069 99.0633663,35.8943069 C98.9071782,35.8943069 98.7804455,35.7675743 98.7804455,35.6113861 C98.7804455,35.455198 98.9071782,35.3287129 99.0633663,35.3287129 C100.611634,35.3287129 101.871287,34.0690594 101.871287,32.5210396 C101.871287,32.3648515 101.997772,32.2381188 102.15396,32.2381188 C102.310149,32.2381188 102.436881,32.3648515 102.436881,32.5210396 C102.436881,34.0690594 103.696535,35.3287129 105.244554,35.3287129 C105.400743,35.3287129 105.527475,35.455198 105.527475,35.6113861 C105.527475,35.7675743 105.400743,35.8943069 105.244554,35.8943069 C103.696535,35.8943069 102.436881,37.1539604 102.436881,38.7022277 C102.436881,38.8584158 102.310149,38.9851485 102.15396,38.9851485 L102.15396,38.9851485 Z" id="Fill-51" fill="#FBC03E"></path>
                            <path d="M96.499505,13.3477723 C96.499505,15.4814356 94.7695545,17.2108911 92.6361386,17.2108911 C94.7695545,17.2108911 96.499505,18.9405941 96.499505,21.074505 C96.499505,18.9405941 98.2292079,17.2108911 100.362624,17.2108911 C98.2294554,17.2108911 96.499505,15.4814356 96.499505,13.3477723" id="Fill-52" fill="#FBC03E"></path>
                            <path d="M94.3259901,17.2108911 C95.2945545,17.6363861 96.0740099,18.4158416 96.4992574,19.3844059 C96.9247525,18.4158416 97.7042079,17.6363861 98.6727723,17.2108911 C97.7042079,16.7856436 96.9247525,16.0061881 96.4992574,15.0376238 C96.0740099,16.0061881 95.2945545,16.7856436 94.3259901,17.2108911 L94.3259901,17.2108911 Z M96.4992574,21.4279703 C96.3039604,21.4279703 96.1460396,21.2695545 96.1460396,21.0742574 C96.1460396,19.1388614 94.5712871,17.564604 92.6361386,17.564604 C92.4408416,17.564604 92.2826733,17.4061881 92.2826733,17.2108911 C92.2826733,17.0158416 92.4408416,16.8574257 92.6361386,16.8574257 C94.5712871,16.8574257 96.1460396,15.2829208 96.1460396,13.3477723 C96.1460396,13.1524752 96.3039604,12.9943069 96.4992574,12.9943069 C96.6945545,12.9943069 96.8527228,13.1524752 96.8527228,13.3477723 C96.8527228,15.2829208 98.4272277,16.8574257 100.362624,16.8574257 C100.557921,16.8574257 100.716089,17.0158416 100.716089,17.2108911 C100.716089,17.4061881 100.557921,17.564604 100.362624,17.564604 C98.4272277,17.564604 96.8527228,19.1388614 96.8527228,21.0742574 C96.8527228,21.2695545 96.6945545,21.4279703 96.4992574,21.4279703 L96.4992574,21.4279703 Z" id="Fill-53" fill="#FBC03E"></path>
                            <path d="M54.3955446,0.880940594 C54.3955446,4.85371287 51.174505,8.07425743 47.2017327,8.07425743 C51.174505,8.07425743 54.3955446,11.2950495 54.3955446,15.2680693 C54.3955446,11.2950495 57.6163366,8.07425743 61.5891089,8.07425743 C57.6165842,8.07425743 54.3955446,4.85371287 54.3955446,0.880940594" id="Fill-54" fill="#FBC03E"></path>
                            <path d="M50.3482673,8.07425743 C52.1519802,8.86633663 53.6034653,10.3178218 54.3955446,12.1215347 C55.1876238,10.3178218 56.6388614,8.86633663 58.4423267,8.07425743 C56.6388614,7.28242574 55.1876238,5.83118812 54.3955446,4.02747525 C53.6034653,5.83118812 52.1519802,7.28242574 50.3482673,8.07425743 L50.3482673,8.07425743 Z M54.3955446,15.9262376 C54.0319307,15.9262376 53.7373762,15.6316832 53.7373762,15.2680693 C53.7373762,11.6643564 50.8054455,8.73242574 47.2017327,8.73242574 C46.8383663,8.73242574 46.5435644,8.43787129 46.5435644,8.07425743 C46.5435644,7.71064356 46.8383663,7.41608911 47.2017327,7.41608911 C50.8054455,7.41608911 53.7373762,4.48440594 53.7373762,0.880940594 C53.7373762,0.517326733 54.0319307,0.222772277 54.3955446,0.222772277 C54.7591584,0.222772277 55.0537129,0.517326733 55.0537129,0.880940594 C55.0537129,4.48440594 57.985396,7.41608911 61.5888614,7.41608911 C61.9524752,7.41608911 62.2472772,7.71064356 62.2472772,8.07425743 C62.2472772,8.43787129 61.9524752,8.73242574 61.5888614,8.73242574 C57.985396,8.73242574 55.0537129,11.6643564 55.0537129,15.2680693 C55.0537129,15.6316832 54.7591584,15.9262376 54.3955446,15.9262376 L54.3955446,15.9262376 Z" id="Fill-55" fill="#FBC03E"></path>
                        </g>
                    </g>
                </g>
            </g>
        </g>
    </g>
</svg>