<?xml version="1.0" encoding="UTF-8" standalone="no"?>
<svg width="80px" height="80px" viewBox="0 0 80 80" version="1.1" xmlns="http://www.w3.org/2000/svg" xmlns:xlink="http://www.w3.org/1999/xlink" xmlns:sketch="http://www.bohemiancoding.com/sketch/ns">
    <!-- Generator: sketchtool 3.4 (381) - http://www.bohemiancoding.com/sketch -->
    <title>boost</title>
    <desc>Created with sketchtool.</desc>
    <defs>
        <path id="path-1" d="M0,0.0632061069 L79.9349618,0.0632061069 L79.9349618,80 L0,80 L0,0.0632061069 Z"></path>
        <path id="path-3" d="M0.0183206107,0.0632061069 L79.9349618,0.0632061069 L79.9349618,80 L0.0183206107,80"></path>
    </defs>
    <g id="Web" stroke="none" stroke-width="1" fill="none" fill-rule="evenodd" sketch:type="MSPage">
        <g id="FAQ" sketch:type="MSArtboardGroup" transform="translate(-760.000000, -1056.000000)">
            <g id="Top-Questions" sketch:type="MSLayerGroup" transform="translate(230.000000, 1026.000000)">
                <g id="q" transform="translate(500.000000, 0.000000)">
                    <g id="boost" transform="translate(20.000000, 20.000000)">
                        <rect id="Rectangle-324" fill-opacity="0" fill="#D8D8D8" sketch:type="MSShapeGroup" x="0" y="0" width="100" height="100"></rect>
                        <g id="Page-1" transform="translate(10.000000, 10.000000)">
                            <path d="M63.4694046,4.76323664 L43.372,24.8609466 L70.5353588,52.024 L51.9594809,70.5998779 L24.7961221,43.4362137 L4.69993893,63.5330076 L4.70085496,4.7650687 L63.4694046,4.76323664 Z" id="Fill-1" fill="#52B89F" sketch:type="MSShapeGroup"></path>
                            <path d="M68.1694351,9.46387786 L48.0720305,29.5609771 L75.2353893,56.7240305 L56.6595115,75.2999084 L29.4961527,48.1362443 L9.39996947,68.2330382 L9.4008855,9.46509924 L68.1694351,9.46387786 Z" id="Fill-3" fill="#52B89F" sketch:type="MSShapeGroup"></path>
                            <g id="Group-7">
                                <mask id="mask-2" sketch:name="Clip 6" fill="white">
                                    <use xlink:href="#path-1"></use>
                                </mask>
                                <g id="Clip-6"></g>
                                <path d="M72.8694656,14.1639084 L52.7720611,34.2610076 L79.9351145,61.4240611 L61.359542,79.9999389 L34.1964885,52.8362748 L14.1,72.9330687 L14.100916,14.1651298 L72.8694656,14.1639084 Z" id="Fill-5" fill="#52B89F" sketch:type="MSShapeGroup" mask="url(#mask-2)"></path>
                            </g>
                            <g id="in">
                                <path d="M51.9593893,70.6 L34.1963359,52.8366412 L34.1963359,52.8363359 L51.9593893,70.6 M4.70015267,63.5328244 L4.7010687,4.7648855 L63.469313,4.76335878 L58.7685496,9.46412214 L9.40091603,9.46503817 L9.40030534,58.8326718 L4.70015267,63.5328244 M70.5352672,52.0241221 L52.7719084,34.2610687 L70.5352672,52.0241221" id="Fill-1" fill="#52B396" sketch:type="MSShapeGroup"></path>
                                <path d="M56.659542,75.2998473 L51.9593893,70.6 L56.659542,75.2998473 M9.4,68.2329771 L9.40030534,58.8326718 L14.100458,54.1322137 L14.1001527,63.5325191 L9.4,68.2329771 M75.2351145,56.7242748 L70.5349618,52.0241221 L70.5352672,52.0241221 L75.2354198,56.7239695 M54.0683969,14.1642748 L58.7685496,9.46412214 L68.1694656,9.46381679 L63.4690076,14.1639695 L54.0683969,14.1642748" id="Fill-2" fill="#52B396" sketch:type="MSShapeGroup"></path>
                                <path d="M51.9593893,70.6 L34.1963359,52.8366412 L34.1963359,52.8363359 L51.9593893,70.5996947 L51.9593893,70.6 M9.40030534,58.8326718 L9.40091603,9.46503817 L58.7685496,9.46412214 L54.0683969,14.1642748 L14.1010687,14.1651908 L14.100458,54.1322137 L9.40030534,58.8326718 M70.5349618,52.0241221 L52.7719084,34.2610687 L70.5352672,52.0241221" id="Fill-3" fill="#009C6F" sketch:type="MSShapeGroup"></path>
                                <path d="M61.3593893,80 L56.659542,75.2998473 L75.2354198,56.7239695 L79.9349618,61.4241221 L61.3593893,80 M14.1001527,72.9328244 L14.1001527,63.5325191 L29.4961832,48.1361832 L34.1963359,52.8366412 L14.1001527,72.9328244 M52.7719084,34.2610687 L48.0720611,29.560916 L63.4690076,14.1639695 L72.8696183,14.1639695 L52.7719084,34.2610687" id="Fill-4" fill="#52B396" sketch:type="MSShapeGroup"></path>
                                <path d="M34.1963359,52.8366412 L29.4961832,48.1364885 L29.4961832,48.1361832 L34.1963359,52.8366412 L34.1963359,52.8363359 M52.7719084,34.2610687 L48.0717557,29.560916 L52.7719084,34.2610687" id="Fill-5" fill="#009C6F" sketch:type="MSShapeGroup"></path>
                                <path d="M56.659542,75.2998473 L51.9593893,70.5996947 L70.5352672,52.0241221 L75.2351145,56.7242748 L56.659542,75.2998473 M14.1001527,63.5325191 L14.100458,54.1322137 L24.7960305,43.4363359 L29.4961832,48.1364885 L14.1001527,63.5325191 M48.0720611,29.560916 L43.3719084,24.8610687 L54.0683969,14.1642748 L63.4690076,14.1639695 L48.0717557,29.560916" id="Fill-6" fill="#009C6F" sketch:type="MSShapeGroup"></path>
                                <g id="Group-10">
                                    <mask id="mask-4" sketch:name="Clip 8" fill="white">
                                        <use xlink:href="#path-3"></use>
                                    </mask>
                                    <g id="Clip-8"></g>
                                    <path d="M51.9593893,70.5996947 L24.7960305,43.4363359 L14.100458,54.1322137 L14.1010687,14.1651908 L54.0683969,14.1642748 L43.3719084,24.8610687 L48.0720611,29.560916 L48.0717557,29.560916 L70.5349618,52.0241221 L51.9593893,70.6" id="Fill-7" fill="#00945C" sketch:type="MSShapeGroup" mask="url(#mask-4)"></path>
                                    <path d="M58.7694656,0.0632061069 L38.6717557,20.160916 L65.8351145,47.3239695 L47.259542,65.8998473 L20.0958779,38.7361832 L0,58.8323664 L0.000916030534,0.0650381679 L58.7694656,0.0632061069" id="Fill-9" fill="#6CBFA1" sketch:type="MSShapeGroup" mask="url(#mask-4)"></path>
                                </g>
                            </g>
                        </g>
                    </g>
                </g>
            </g>
        </g>
    </g>
</svg>