<?xml version="1.0" encoding="UTF-8" standalone="no"?>
<svg width="406px" height="250px" viewBox="0 0 406 250" version="1.1" xmlns="http://www.w3.org/2000/svg" xmlns:xlink="http://www.w3.org/1999/xlink" xmlns:sketch="http://www.bohemiancoding.com/sketch/ns">
    <!-- Generator: Sketch 3.4.4 (17249) - http://www.bohemiancoding.com/sketch -->
    <title>Logo</title>
    <desc>Created with Sketch.</desc>
    <defs></defs>
    <g id="Web" stroke="none" stroke-width="1" fill="none" fill-rule="evenodd" sketch:type="MSPage">
        <g id="2.0-" sketch:type="MSArtboardGroup">
            <g id="Logo" sketch:type="MSLayerGroup">
                <g id="Logo-BG" sketch:type="MSShapeGroup">
                    <path d="M0,250 L381,0 L406,0 L0,250 Z" id="Rectangle-97" fill-opacity="0.1" fill="#000000"></path>
                    <path d="M0,0 L381,0 L0,250 L0,0 Z" id="Rectangle-97" fill="#FFFFFF"></path>
                </g>
                <g id="Page-1" transform="translate(40.000000, 35.000000)" sketch:type="MSShapeGroup">
                    <path d="M18.8576566,70 L9.55658151,81.0377376 L0.141631705,70 L0,70 L0,90 L2.86430551,90 L2.86430551,77.291467 L9.41494981,85.2740358 L9.55658151,85.2740358 L16.1356945,77.291467 L16.1356945,90 L19,90 L19,70 L18.8576566,70 Z" id="Fill-1" fill="#00A0DD"></path>
                    <g id="Group-50">
                        <path d="M38.4970482,79.9187349 C38.4970482,75.771506 35.6459639,72.6609036 31.5843976,72.6609036 C27.5235542,72.6609036 24.671747,75.771506 24.671747,79.9187349 C24.671747,84.0663253 27.5235542,87.1772892 31.5843976,87.1772892 C35.6459639,87.1772892 38.4970482,84.0663253 38.4970482,79.9187349 M21.474759,79.9187349 C21.474759,74.1294578 25.9678916,69.8665663 31.5843976,69.8665663 C37.2009036,69.8665663 41.6943976,74.1294578 41.6943976,79.9187349 C41.6943976,85.7083735 37.2009036,89.9712651 31.5843976,89.9712651 C25.9678916,89.9712651 21.474759,85.7083735 21.474759,79.9187349" id="Fill-2" fill="#00A0DD"></path>
                        <path d="M46.7515663,76.8368313 L46.7515663,89.7118916 L43.8712048,89.7118916 L43.8712048,69.8377952 L44.1018072,69.8377952 L56.6598795,83.0005663 L56.6598795,70.1258675 L59.540241,70.1258675 L59.540241,89.9999639 L59.3092771,89.9999639 L46.7515663,76.8368313 Z" id="Fill-4" fill="#00A0DD"></path>
                        <path d="M61.9342771,70.125759 L74.4063253,70.125759 L74.4063253,72.8622651 L65.0163253,72.8622651 L65.0163253,78.4787711 L73.3404217,78.4787711 L73.3404217,81.1574458 L65.0163253,81.1574458 L65.0163253,86.9756386 L74.8093373,86.9756386 L74.8093373,89.7117831 L61.9342771,89.7117831 L61.9342771,70.125759 Z" id="Fill-6" fill="#00A0DD"></path>
                        <path d="M75.788747,70.125759 L79.1874217,70.125759 L84.1992289,78.9110602 L89.1246506,70.125759 L92.3505542,70.125759 L85.6970602,81.8778072 L85.6970602,89.7117831 L82.615012,89.7117831 L82.615012,81.9063614 L75.788747,70.125759 Z" id="Fill-8" fill="#00A0DD"></path>
                        <path d="M78.992494,50.8653614 L73.1739398,50.8653614 L73.1739398,48.1288554 L87.8923735,48.1288554 L87.8923735,50.8653614 L82.0745422,50.8653614 L82.0745422,67.7148795 L78.992494,67.7148795 L78.992494,50.8653614 Z" id="Fill-10" fill="#E54260"></path>
                        <path d="M90.2865542,48.1288916 L102.758602,48.1288916 L102.758602,50.8653976 L93.3686024,50.8653976 L93.3686024,56.4819036 L101.692699,56.4819036 L101.692699,59.1605783 L93.3686024,59.1605783 L93.3686024,64.9787711 L103.161614,64.9787711 L103.161614,67.7149157 L90.2865542,67.7149157 L90.2865542,48.1288916 Z" id="Fill-12" fill="#E54260"></path>
                        <path d="M108.637518,50.8653614 L111.719566,50.8653614 C114.599928,50.8653614 115.838241,51.9887349 115.838241,54.3507831 C115.838241,56.6831928 114.628482,57.8354819 111.719566,57.8354819 L110.591855,57.8354819 L116.587157,67.7148795 L119.957277,67.7148795 L115.233542,59.9383735 C117.681614,59.045241 119.035229,57.0865663 119.035229,54.3507831 C119.035229,50.634759 116.414386,48.1288554 111.834506,48.1288554 L105.55547,48.1288554 L105.55547,67.7148795 L108.637518,67.7148795 L108.637518,50.8653614 Z" id="Fill-14" fill="#E54260"></path>
                        <g id="Group-18" transform="translate(0.000000, 48.072289)" fill="#E54260">
                            <path d="M3.08190361,2.79307229 L6.16395181,2.79307229 C9.04431325,2.79307229 10.2826265,3.91644578 10.2826265,6.27849398 C10.2826265,8.61090361 9.07286747,9.76319277 6.16395181,9.76319277 L5.03624096,9.76319277 L11.0315422,19.6425904 L14.4016627,19.6425904 L9.67792771,11.8660843 C12.126,10.9729518 13.4796145,9.01427711 13.4796145,6.27849398 C13.4796145,2.56246988 10.8587711,0.0565662651 6.27889157,0.0565662651 L-0.000144578313,0.0565662651 L-0.000144578313,19.6425904 L3.08190361,19.6425904 L3.08190361,2.79307229 Z" id="Fill-16"></path>
                        </g>
                        <path d="M32.3613976,57.9218675 C32.3613976,53.7746386 29.5103133,50.6640361 25.448747,50.6640361 C21.3879036,50.6640361 18.5360964,53.7746386 18.5360964,57.9218675 C18.5360964,62.0694578 21.3879036,65.1804217 25.448747,65.1804217 C29.5103133,65.1804217 32.3613976,62.0694578 32.3613976,57.9218675 M15.3391084,57.9218675 C15.3391084,52.1325904 19.832241,47.8696988 25.448747,47.8696988 C31.065253,47.8696988 35.558747,52.1325904 35.558747,57.9218675 C35.558747,63.711506 31.065253,67.9743976 25.448747,67.9743976 C19.832241,67.9743976 15.3391084,63.711506 15.3391084,57.9218675" id="Fill-19" fill="#E54260"></path>
                        <path d="M54.4709277,57.9218675 C54.4709277,53.7746386 51.6191205,50.6640361 47.5582771,50.6640361 C43.4970723,50.6640361 40.6452651,53.7746386 40.6452651,57.9218675 C40.6452651,62.0694578 43.4970723,65.1804217 47.5582771,65.1804217 C51.6191205,65.1804217 54.4709277,62.0694578 54.4709277,57.9218675 M37.4482771,57.9218675 C37.4482771,52.1325904 41.9414096,47.8696988 47.5582771,47.8696988 C53.1747831,47.8696988 57.6679157,52.1325904 57.6679157,57.9218675 C57.6679157,63.711506 53.1747831,67.9743976 47.5582771,67.9743976 C41.9414096,67.9743976 37.4482771,63.711506 37.4482771,57.9218675" id="Fill-21" fill="#E54260"></path>
                        <path d="M61.4040723,62.5593253 C62.2968434,64.2588434 63.8232289,65.2090843 65.8397349,65.2090843 C67.9133494,65.2090843 69.296241,64.2299277 69.296241,62.6457108 C69.296241,60.8023373 67.8844337,60.111253 66.1563614,59.3334217 L64.802747,58.7287229 C61.9220241,57.461494 59.9347952,56.0207711 59.9347952,52.9676386 C59.9347952,49.9723373 62.2104578,47.8698072 65.5513012,47.8698072 C68.259253,47.8698072 70.0737108,48.878241 71.3123855,50.9518554 L68.979253,52.478241 C68.2303373,51.2106506 67.1644337,50.5770361 65.6087711,50.5770361 C63.9385301,50.5770361 62.9304578,51.4990843 62.9304578,52.8526988 C62.9304578,54.4083614 63.9099759,54.9552289 66.0410602,55.9058313 L67.3946747,56.5105301 C70.3614217,57.8355904 72.3493735,59.2466747 72.3493735,62.5593253 C72.3493735,66.1596867 69.5839518,67.974506 65.8682892,67.974506 C62.5270843,67.974506 60.1364819,66.3613735 58.8114217,63.8554699 L61.4040723,62.5593253 Z" id="Fill-23" fill="#E54260"></path>
                        <path d="M10.7047229,5.88216867 L5.31845783,7.67024096 L9.63737349,10.2473494 L10.7047229,5.88216867 Z" id="Fill-25" fill="#E2271D"></path>
                        <path d="M10.2743133,6.02504819 L9.63744578,10.2474578 L10.7047952,5.88227711 L10.2743133,6.02504819 Z" id="Fill-27" fill-opacity="0.1" fill="#000000"></path>
                        <g id="Group-31" transform="translate(11.204819, 0.000000)" fill="#E54260">
                            <path d="M4.05209639,9.24310843 L0.151012048,3.23587952 L11.9066747,0.253951807 L4.05209639,9.24310843 Z" id="Fill-29"></path>
                        </g>
                        <path d="M22.2945904,20.0799759 L11.3557952,3.23587952 L4.99181928,29.1005783 L22.2945904,20.0799759 Z" id="Fill-32" fill="#FCC42F"></path>
                        <path d="M4.99189157,29.100759 L21.6086386,19.0236506 L22.2946627,20.0801566 L4.99189157,29.100759 Z" id="Fill-34" fill-opacity="0.1" fill="#000000"></path>
                        <path d="M4.43353012,29.3918675 L23.8406386,19.2728313 L27.4276265,45.2557229 L4.43353012,29.3918675 Z" id="Fill-36" fill="#59B7B2"></path>
                        <path d="M21.8272771,19.8228072 C22.2852289,19.2481084 33.0964337,9.66979518 33.0964337,9.66979518 L42.4351084,23.8438916 L31.9839036,37.8596747 L21.8272771,19.8228072 Z" id="Fill-38" fill="#00A0DD"></path>
                        <path d="M21.8272771,19.8228072 L21.8272771,41.3920843 L24.3263133,43.1161807 L21.8272771,19.8228072 Z" id="Fill-40" fill-opacity="0.1" fill="#000000"></path>
                        <path d="M21.8272771,19.8228072 L25.914506,57.9220843 L32.5625783,37.4418434 L21.8272771,19.8228072 Z" id="Fill-42" fill="#FCC42F"></path>
                        <path d="M16.2609759,8.09407229 L15.2568795,9.24310843 L11.3557952,3.23587952 L16.2609759,8.09407229 Z" id="Fill-44" fill-opacity="0.1" fill="#000000"></path>
                        <path d="M33.0964699,9.65324096 L49.4052651,34.4831205 L47.6623735,20.1080602 L33.0964699,9.65324096 Z" id="Fill-46" fill="#266093"></path>
                        <path d="M33.0964699,9.65324096 C33.4488795,10.1776988 41.0186386,25.7433614 41.0186386,25.7433614 L42.4351446,23.8439639 L33.0964699,9.65324096 Z" id="Fill-48" fill-opacity="0.1" fill="#000000"></path>
                    </g>
                </g>
            </g>
        </g>
    </g>
</svg>