<?xml version="1.0" encoding="UTF-8" standalone="no"?>
<svg width="31px" height="30px" viewBox="0 0 31 30" version="1.1" xmlns="http://www.w3.org/2000/svg" xmlns:xlink="http://www.w3.org/1999/xlink" xmlns:sketch="http://www.bohemiancoding.com/sketch/ns">
    <!-- Generator: sketchtool 3.4 (381) - http://www.bohemiancoding.com/sketch -->
    <title>-g-instagram</title>
    <desc>Created with sketchtool.</desc>
    <defs></defs>
    <g id="Web" stroke="none" stroke-width="1" fill="none" fill-rule="evenodd" sketch:type="MSPage">
        <g id="About" sketch:type="MSArtboardGroup" transform="translate(-815.000000, -1864.000000)" fill="#FFFFFF">
            <g id="Links" sketch:type="MSLayerGroup" transform="translate(0.000000, 1699.000000)">
                <g id="Group" transform="translate(480.000000, 0.000000)" sketch:type="MSShapeGroup">
                    <g id="instagram" transform="translate(250.000000, 141.000000)">
                        <g id="-g-instagram" transform="translate(85.000000, 24.000000)">
                            <path d="M27.507426,29.9181896 C28.7342105,29.6581953 29.7366565,28.6362079 29.9764371,27.4039121 C30.0021738,27.2707025 30.0210474,27.1353512 30.0429237,27.0017133 L30.0429237,2.99828669 C30.0219053,2.86679041 30.0038896,2.73486579 29.9781529,2.60379783 C29.7152092,1.25928041 28.6046689,0.215876642 27.2410507,0.0295545403 C27.1844299,0.0222729869 27.1290959,0.00985151342 27.073333,0 L2.96959066,0 C2.82417809,0.0261279269 2.67790763,0.0458309537 2.53463978,0.0783837807 C1.20362146,0.381210737 0.218762276,1.45159909 0.0291683035,2.79825814 C0.021447282,2.85436893 0.00986574971,2.9100514 0,2.96616219 L0,27.0351228 C0.0274525209,27.1876071 0.0493287486,27.3413764 0.0836443997,27.493004 C0.377901109,28.7925471 1.48887032,29.7999714 2.81045183,29.9695888 C2.87436473,29.9772987 2.93870658,29.9897202 3.00261948,30 L27.0403042,30 C27.1964404,29.9734437 27.3530055,29.9515991 27.507426,29.9181896 Z M3.25012111,12.2450029 C3.25012111,16.6846088 3.24969217,21.1242147 3.25055006,25.5638207 C3.25055006,26.2024557 3.80431888,26.7515705 4.44387683,26.7515705 C11.4940274,26.7519989 18.5437489,26.7519989 25.5938995,26.7515705 C26.2394627,26.7515705 26.7902289,26.2033124 26.7902289,25.5599657 C26.7906578,21.1254997 26.7902289,16.691462 26.7902289,12.2574243 L26.7902289,12.1653341 L23.9222983,12.1653341 C24.327223,13.4575957 24.4516172,14.7721302 24.2929074,16.111936 C24.1333396,17.4521702 23.7009624,18.6994575 22.9966336,19.8512279 C22.2918759,21.0042833 21.3782217,21.9594517 20.2595315,22.7197316 C17.359859,24.6917476 13.5422428,24.8652199 10.4654157,23.1407767 C8.91005883,22.2699886 7.68885059,21.0556825 6.8373935,19.4910051 C5.56728546,17.1561965 5.36439417,14.7057396 6.10947275,12.1631925 C5.15807132,12.1640491 4.2105304,12.1640491 3.25012111,12.1640491 L3.25012111,12.2450029 Z M8.93407978,14.9079098 C8.88603787,18.3092519 11.6128453,21.0055682 14.88184,21.0758138 C18.2833789,21.1486294 21.0346363,18.4347516 21.1062702,15.1340662 C21.1796199,11.7301542 18.4300784,8.91861793 15.0216763,8.92075957 C11.6896266,8.91861793 8.98083486,11.5956596 8.93407978,14.9079098 Z M25.6355072,7.69403198 C26.2716336,7.67818389 26.7897999,7.1337807 26.7897999,6.49771559 C26.7902289,5.55068532 26.7902289,4.60322673 26.7897999,3.65619646 C26.7897999,2.97687036 26.2514731,2.4363221 25.5720233,2.43589377 C24.6261981,2.43546545 23.680373,2.43503712 22.7341189,2.43589377 C22.0563848,2.43675043 21.5163422,2.97858367 21.5159133,3.65790977 C21.5154843,4.59680183 21.5129107,5.53569389 21.5193449,6.47501428 C21.5202027,6.6150771 21.5467974,6.76070817 21.5914077,6.89348943 C21.7612702,7.39334666 22.2198131,7.70002856 22.7813029,7.70259852 C23.2377011,7.70345517 23.6940992,7.70217019 24.1509263,7.70217019 C24.6450717,7.69660194 25.1409329,7.70602513 25.6355072,7.69403198 Z" id="Path"></path>
                        </g>
                    </g>
                </g>
            </g>
        </g>
    </g>
</svg>