<?xml version="1.0" encoding="UTF-8" standalone="no"?>
<svg width="20px" height="17px" viewBox="0 0 20 17" version="1.1" xmlns="http://www.w3.org/2000/svg" xmlns:xlink="http://www.w3.org/1999/xlink" xmlns:sketch="http://www.bohemiancoding.com/sketch/ns">
    <!-- Generator: sketchtool 3.4 (381) - http://www.bohemiancoding.com/sketch -->
    <title>-g-twitter</title>
    <desc>Created with sketchtool.</desc>
    <defs></defs>
    <g id="Web" stroke="none" stroke-width="1" fill="none" fill-rule="evenodd" sketch:type="MSPage">
        <g id="About" sketch:type="MSArtboardGroup" transform="translate(-1137.000000, -1894.000000)" fill="#FFFFFF">
            <g id="Links" sketch:type="MSLayerGroup" transform="translate(0.000000, 1699.000000)">
                <g id="Group" transform="translate(960.000000, 0.000000)" sketch:type="MSShapeGroup">
                    <g id="12-hours-ago-+-Path" transform="translate(177.000000, 191.000000)">
                        <g id="-g-twitter" transform="translate(0.000000, 4.000000)">
                            <path d="M9.71114123,4.39666422 L9.75449454,5.11153991 L9.03193939,5.02400411 C6.40183864,4.68845022 4.10411326,3.55048483 2.15321435,1.63928657 L1.19944155,0.690982081 L0.9537728,1.39126847 C0.433533091,2.95232354 0.76590846,4.60091442 1.84974119,5.7097012 C2.42778531,6.32245179 2.29772538,6.40998759 1.30059927,6.04525509 C0.9537728,5.9285407 0.650299636,5.8410049 0.62139743,5.8847728 C0.520239709,5.98689789 0.867066182,7.31452417 1.14163714,7.83973896 C1.51736582,8.56920395 2.28327428,9.28407964 3.12143825,9.70716933 L3.8295423,10.0427232 L2.99137833,10.0573125 C2.18211656,10.0573125 2.15321435,10.0719018 2.23992097,10.3782771 C2.52894303,11.3265816 3.67058017,12.3332433 4.94227724,12.7709223 L5.83824562,13.0772976 L5.05788606,13.5441552 C3.90179782,14.215263 2.54339413,14.5945848 1.18499045,14.6237634 C0.534690812,14.6383527 1.95399252e-14,14.6967099 1.95399252e-14,14.7404778 C1.95399252e-14,14.8863707 1.76303457,15.7033715 2.78906288,16.0243361 C5.86714783,16.9726406 9.5232769,16.5641402 12.2689865,14.9447279 C14.2198854,13.7921733 16.1707843,11.5016532 17.0812038,9.28407964 C17.5725413,8.10234636 18.0638788,5.94312999 18.0638788,4.90728971 C18.0638788,4.23618192 18.1072321,4.14864612 18.9164939,3.34623464 C19.3933803,2.87937705 19.8413645,2.36875155 19.9280711,2.22285856 C20.0725821,1.94566186 20.058131,1.94566186 19.3211247,2.19367996 C18.092781,2.63135895 17.9193678,2.57300175 18.5263141,1.91648326 C18.9742983,1.44962567 19.5089891,0.603446282 19.5089891,0.355428186 C19.5089891,0.311660287 19.2922225,0.384606786 19.0465538,0.515910484 C18.7864339,0.661803481 18.2083898,0.880642978 17.7748567,1.01194668 L16.9944972,1.25996477 L16.2863931,0.778517879 C15.8962133,0.515910484 15.3470714,0.224124488 15.0580494,0.13658869 C14.3210431,-0.0676615069 13.1938571,-0.0384829073 12.5291063,0.194945889 C10.7227184,0.851464378 9.58108131,2.54382315 9.71114123,4.39666422 Z" id="Path"></path>
                        </g>
                    </g>
                </g>
            </g>
        </g>
    </g>
</svg>