<?xml version="1.0" encoding="UTF-8" standalone="no"?>
<svg width="24px" height="24px" viewBox="0 0 24 24" version="1.1" xmlns="http://www.w3.org/2000/svg" xmlns:xlink="http://www.w3.org/1999/xlink" xmlns:sketch="http://www.bohemiancoding.com/sketch/ns">
    <!-- Generator: Sketch 3.4.4 (17249) - http://www.bohemiancoding.com/sketch -->
    <title>facebook</title>
    <desc>Created with Sketch.</desc>
    <defs></defs>
    <g id="Web" stroke="none" stroke-width="1" fill="none" fill-rule="evenodd" sketch:type="MSPage">
        <g id="2.0-" sketch:type="MSArtboardGroup" transform="translate(-1288.000000, -965.000000)" fill-opacity="0.8" fill="#FFFFFF">
            <g id="Footer" sketch:type="MSLayerGroup" transform="translate(60.000000, 965.000000)">
                <path d="M1243.595,11.5 L1241.5,11.5 L1241.5,18.5 L1238.5,18.5 L1238.5,11.5 L1236.5,11.5 L1236.5,9.5 L1238.5,9.5 L1238.5,8.336 C1238.5,7.237 1238.852,5.518 1241.15,5.518 L1243.5,5.524 L1243.5,7.83 L1242.092,7.83 C1241.848,7.83 1241.5,7.954 1241.5,8.477 L1241.5,9.5 L1243.839,9.5 L1243.595,11.5 Z M1240,0 C1233.383,0 1228,5.383 1228,12 C1228,18.617 1233.383,24 1240,24 C1246.618,24 1252,18.617 1252,12 C1252,5.383 1246.618,0 1240,0 L1240,0 Z" id="facebook" sketch:type="MSShapeGroup"></path>
            </g>
        </g>
    </g>
</svg>