<?xml version="1.0" encoding="UTF-8" standalone="no"?>
<svg width="24px" height="24px" viewBox="0 0 24 24" version="1.1" xmlns="http://www.w3.org/2000/svg" xmlns:xlink="http://www.w3.org/1999/xlink" xmlns:sketch="http://www.bohemiancoding.com/sketch/ns">
    <!-- Generator: Sketch 3.4.4 (17249) - http://www.bohemiancoding.com/sketch -->
    <title>instagram</title>
    <desc>Created with Sketch.</desc>
    <defs></defs>
    <g id="Web" stroke="none" stroke-width="1" fill="none" fill-rule="evenodd" sketch:type="MSPage">
        <g id="2.0-" sketch:type="MSArtboardGroup" transform="translate(-1356.000000, -965.000000)" fill-opacity="0.8" fill="#FFFFFF">
            <g id="Footer" sketch:type="MSLayerGroup" transform="translate(60.000000, 965.000000)">
                <g id="instagram" transform="translate(1296.000000, 0.000000)" sketch:type="MSShapeGroup">
                    <path d="M8.5449,9.5205 C8.6769,9.2915 8.8279,9.0795 8.9999,8.8825 L8.9999,6.0005 L7.9999,6.0005 L7.9999,9.5225 L8.5449,9.5205 Z" id="Fill-1"></path>
                    <path d="M15,11.5 C15,9.843 13.656,8.5 12,8.5 C10.343,8.5 9,9.843 9,11.5 C9,13.156 10.343,14.5 12,14.5 C13.656,14.5 15,13.156 15,11.5" id="Fill-3"></path>
                    <path d="M16,7 L17,7 L17,8 L16,8 L16,7 Z M10,8.056 C10.591,7.712 11.269,7.5 12,7.5 C13.477,7.5 14.754,8.313 15.447,9.506 L18,9.501 L18,7.831 C18,6.822 17.178,6 16.167,6 L10,6 L10,8.056 Z" id="Fill-5"></path>
                    <path d="M19,16.1655 C19,17.7285 17.73,19.0005 16.167,19.0005 L7.833,19.0005 C6.271,19.0005 5,17.7285 5,16.1655 L5,7.8315 C5,6.2705 6.271,5.0005 7.833,5.0005 L16.167,5.0005 C17.73,5.0005 19,6.2705 19,7.8315 L19,16.1655 Z M12,0.0005 C5.383,0.0005 0,5.3835 0,12.0005 C0,18.6165 5.383,24.0005 12,24.0005 C18.617,24.0005 24,18.6165 24,12.0005 C24,5.3835 18.617,0.0005 12,0.0005 L12,0.0005 Z" id="Fill-7"></path>
                    <path d="M7,9.5239 L7,6.2099 C6.409,6.5139 6,7.1229 6,7.8319 L6,9.5269 L7,9.5239 Z" id="Fill-8"></path>
                </g>
            </g>
        </g>
    </g>
</svg>