<?xml version="1.0" encoding="UTF-8" standalone="no"?>
<svg width="24px" height="24px" viewBox="0 0 24 24" version="1.1" xmlns="http://www.w3.org/2000/svg" xmlns:xlink="http://www.w3.org/1999/xlink" xmlns:sketch="http://www.bohemiancoding.com/sketch/ns">
    <!-- Generator: Sketch 3.4.4 (17249) - http://www.bohemiancoding.com/sketch -->
    <title>twitter</title>
    <desc>Created with Sketch.</desc>
    <defs></defs>
    <g id="Web" stroke="none" stroke-width="1" fill="none" fill-rule="evenodd" sketch:type="MSPage">
        <g id="2.0-" sketch:type="MSArtboardGroup" transform="translate(-1322.000000, -965.000000)" fill-opacity="0.8" fill="#FFFFFF">
            <g id="Footer" sketch:type="MSLayerGroup" transform="translate(60.000000, 965.000000)">
                <path d="M1279.262,9.385 C1279.268,9.498 1279.27,9.611 1279.27,9.725 C1279.27,13.203 1276.622,17.215 1271.782,17.215 C1270.295,17.215 1268.911,16.778 1267.746,16.031 C1269.12,16.192 1270.518,15.824 1271.643,14.942 C1270.491,14.92 1269.52,14.159 1269.185,13.114 C1269.581,13.188 1269.988,13.174 1270.373,13.068 C1269.169,12.827 1268.262,11.763 1268.262,10.489 L1268.262,10.454 C1268.617,10.651 1269.024,10.769 1269.454,10.783 C1268.748,10.311 1268.283,9.507 1268.283,8.593 C1268.283,8.111 1268.413,7.659 1268.64,7.269 C1269.938,8.862 1271.877,9.911 1274.065,10.019 C1274.02,9.827 1273.996,9.625 1273.996,9.42 C1273.996,7.966 1275.175,6.787 1276.629,6.787 C1277.386,6.787 1278.07,7.107 1278.55,7.619 C1279.15,7.5 1280.5,7.354 1280.5,7.354 C1280.148,7.882 1279.777,9.013 1279.262,9.385 M1274,0 C1267.383,0 1262,5.384 1262,12 C1262,18.617 1267.383,24 1274,24 C1280.617,24 1286,18.617 1286,12 C1286,5.384 1280.617,0 1274,0" id="twitter" sketch:type="MSShapeGroup"></path>
            </g>
        </g>
    </g>
</svg>